<svg enable-background="new 0 0 450 401" viewBox="0 0 450 401" xmlns="http://www.w3.org/2000/svg" xmlns:xlink="http://www.w3.org/1999/xlink"><linearGradient id="a" gradientTransform="matrix(.964 -.2659 -.2659 -.964 8752.2559 568.8782)" gradientUnits="userSpaceOnUse" x1="-8125.0742" x2="-8173.5645" y1="2646.4214" y2="2639.6414"><stop offset=".04" stop-color="#f5f5f5" stop-opacity="0"/><stop offset="1" stop-color="#fff"/></linearGradient><path d="m15.5 348.9h420" fill="none" stroke="#236d9b" stroke-linecap="round" stroke-miterlimit="10"/><path d="m0 0h450v401h-450z" fill="none"/><path d="m26.1 91.1h75.2v86.9h-75.2z" fill="#fff"/><path d="m29 94.4h69.5v80.3h-69.5z" fill="#c6edf7"/><path d="m54.3 139.4v-.1c0-.1-.2-7.4-.5-9.9-.3-2.8-1.9-11.5-1.9-11.5-.1-.4-.3-.8-.7-1.1l-.5-.4c-.5-.4-3.8-1.4-4.8-1.9h-.1v-1.5l.1-.1c.5-.7.9-1.5 1.1-2.3.3.1.6-.3.7-.8s0-1-.3-1c-.1 0-.1 0-.2 0 .1-.3.1-.5.1-.8.1-.4.1-.8 0-1.2 0-.4 0-.8-.1-1.2-.1-.2-.1-.4-.3-.5 0 0 0 0 0-.1-1.2-1.5-3.1-2.1-4.9-1.6-.8.1-1.4.5-1.8 1.2-.4.2-.6.5-.6.9-.1 1-.1 2.1.1 3.1h-.1c-.3.1-.4.5-.3 1s.4.9.7.8c.2.7.5 1.4.9 2.1l.4.3v1.4c-1.1.5-2.3.9-3.5 1.3-.4.1-.8.3-1.2.5-.1 0-.2.1-.3.2l-.6.5c-.3.3-.6.7-.7 1.1 0 0-1.5 8.7-1.8 11.5-.3 2.5-.5 9.8-.5 9.9v.1l-.4 1.9.4 2.2.9 1.1c.2.3.7.3.9.1 0 0 0 0 .1-.1l-.3-.5.3-.7-.6-.9-.1-1.4.7.5v1.4l.4.1c.2.1.5.1.6-.1 0 0 .1-.1.1-.2l.3-1.5-.4-1.5-.6-1.7c.9-2.4 1.4-5 1.7-7.6.1-.8.9-5.5 1.3-7.9v1.7.3 1c0 2 0 4.1-.1 5.4-.1 1.9-.3 3.9-.4 5.4v.2c-.1 1.3-.2 2.1-.2 2.1-.1.6-.1.9-.1.9 0 .3 0 .6.1.9.1 1.4.1 2.8.2 4.2s.1 3.4.3 4.8c0 .2 0 .4.1.6l.1 2v.9c0 .1 0 .2-.1.3-.1.8-.2 1.6-.2 2.4-.1 1.9 0 7.4.1 9.3 0 .5.1 1 .1 1.5l.2 1.4h.9c-.7.3-3.6 1.5-3.8 1.5s-.4.6 0 .6c1.4.1 2.9 0 4.3-.3.6-.2 2 .4 2.5-.2.3-.5.4-1 .4-1.5h.2c.2-.4.2-.8.2-1.2 0-.5.1-1 .1-1.5 0-1.1.1-5.6.1-6.7s0-2.1 0-3.1c0-.5-.1-1-.1-1.5 0-.3 0-.6 0-.8v-.6l.2-3.6c.2-.9.2-4.7.4-6.7h.7c.2 1.8.3 5.8.4 6.7l.2 3.6v.6.8c0 .5-.1 1-.1 1.5 0 1-.1 2.1 0 3.1s.1 5.6.1 6.7c0 .5 0 1 .1 1.5 0 .4 0 .8.2 1.2.2.1.5.1.7.1l.1.7s1.2 2.6 1.9 2.3 2.3-.6 2.3-.9c-.3-.7-.7-1.4-1.2-2v-.2h.7l.2-1.4c.1-.5.1-1 .1-1.5.1-1.9.2-7.4.1-9.3 0-.8-.1-1.6-.2-2.4 0-.1 0-.2-.1-.3v-1l.1-1.9c0-.2.1-.4.1-.6.2-1.4.2-3.4.3-4.8s.1-2.8.2-4.2c0-.3 0-.5.1-.8 0 0-.2-1.3-.5-3.1 0-.1 0-.1 0-.2-.1-1.5-.3-3.5-.4-5.5-.1-1.3-.1-3.4-.1-5.4v-2.9c.4 2.5 1.2 7 1.3 7.8.3 2.6.9 5.1 1.8 7.6l-.5 1.7-.3 1.6.3 1.5c0 .2.3.4.5.3.1 0 .1 0 .2-.1l.2-.1-.1-1.4.7-.5v1.4l-.6.9.3.7-.3.5c.2.3.7.3.9.1 0 0 0 0 .1-.1l.9-1.1.4-2.2z" fill="#fff" opacity=".79"/><path d="m60.5 105.4h35.9v6.5h-35.9z" fill="#72c5e3"/><path d="m60.5 116.5h35.9v6.5h-35.9z" fill="#fff" opacity=".79"/><path d="m60.5 128.7h35.9v6.5h-35.9z" fill="#72c5e3"/><path d="m60.5 139.8h22.8v6.5h-22.8z" fill="#fff" opacity=".79"/><path d="m95.8 169.8h-35.2v-4.9h35.2v-.1h-35.2v-4.6h35.2v-.1h-35.2v-4.6h35.2v-.1h-35.2v-3.9h35.2v-.1h-35.2v-.7h-.1v19.2h35.3z" fill="#fff"/><path d="m67.4 150.8h.1v19h-.1z" fill="#fff"/><path d="m74.3 150.8h.1v19h-.1z" fill="#fff"/><path d="m87.5 150.8h.1v19h-.1z" fill="#fff"/><path d="m80.9 150.8h.1v19h-.1z" fill="#fff"/><path d="m93.1 150.8h.1v19h-.1z" fill="#fff"/><path d="m93.1 151.3c-.2-.1-.4-.1-.6 0l-14.7 12-7.8-2.5c-.2 0-.3 0-.5.1-6.2 5.6-8.3 7.6-9 8.3v.5h.5c.7-.7 5.6-5.2 9-8.3l7.7 2.5c.2.1.3 0 .5-.1l14.9-12.1c.2-.1.2-.2 0-.4z" fill="#fff"/><path d="m84.6 336.1h245.7c3.3 0 5.9 2.7 5.9 5.9 0 3.3-2.7 5.9-5.9 5.9h-245.7c-3.3 0-5.9-2.7-5.9-5.9 0-3.2 2.6-5.9 5.9-5.9z" fill="#213949"/><path d="m302.8 358-.1.7h-3.5c1.3-.1 2.5-.3 3.6-.7z" fill="#fff"/><path d="m82.3 245 .1.7 2.9 22.9.9 6.9 3.5 27.8 1.6 12.9 2.8 21.9c1.3.3 2.5.5 3.8.6h223.3l.1-1.2 2.7-21.4 1.3-9.8.4-3.1v-.4l3.5-27.4.9-6.9 2.9-22.9.1-.7.6-4.8h-191.6l1.2 4.8z" fill="#fff"/><path d="m78.5 274.2 4.4 24.7c.4 1.9 1.9 3.4 3.8 3.9.7.2 1.5.4 2.3.4h238.2c.8 0 1.5-.1 2.2-.4 1.9-.5 3.3-2 3.8-3.9l.8-4.4 3.6-20.4c.3-2.1-.9-4.1-2.8-4.9-1-.5-2.1-.8-3.2-.8h-247.1c-1.1 0-2.2.3-3.2.8-2 .9-3.1 2.9-2.8 5z" fill="#3da3e3"/><path d="m77.1 242.5c0 1.8 1.4 3.2 3.2 3.2h255c1.8 0 3.2-1.4 3.2-3.2s-1.4-3.2-3.2-3.2h-255c-.8 0-1.7.3-2.3.9s-.9 1.4-.9 2.3z" fill="#2ec4a9"/><path d="m82.4 245.6 2.9 22.9h-.8c-1.1 0-2.2.3-3.2.8-1.9.8-3 2.9-2.8 4.9l4.4 24.7c.4 1.9 1.9 3.4 3.8 3.9.7.2 1.5.4 2.3.4h.8l1.6 12.9 2.8 21.9c1.3.3 2.5.5 3.8.6h223.3l.1-1.2 2.7-21.4 1.3-9.8.4-3.1h1.4c.8 0 1.5-.1 2.2-.4h-117.4c-21.4 0-40.3-13.9-46.7-34.3l-7.2-22.9-1.7-5.5-.3-.9h-75.8c-1.8 0-3.2 1.4-3.2 3.2v.2c.2 1.7 1.6 3 3.3 2.9z" fill="#213949" opacity=".14"/><path d="m247.9 236.2c.9 0 1.7 0 2.6-.2.4-.1.7-.2 1.1-.3-1.3.2-2.5.4-3.7.5z" fill="#ffbd9a"/><path d="m99.9 329.4h-5.2c0-6.2.2-12.5.2-18.7 1.7 0 3.4 0 5.1-.1.1 6.3 0 12.6-.1 18.8z" fill="#aab3ba"/><path d="m94.9 310.7c0 6.2-.1 12.5-.2 18.7h1.7c0-6.2.1-12.5.1-18.7z" fill="#c3c9ce"/><path d="m60.2 256.7c-5.7-.1-6-2.7-7.6-8.8-3-11.5-5.3-18.5-4.1-30.3.6-6.3 2.9-7 6.8-7.3 3.9-.4 6.6 1.1 6.8 6.7.4 10.6 2.3 20.4 4.2 31.4 1 5.9-.4 8.4-6.1 8.3z" fill="#3da3e3"/><path d="m60.2 256.7c-5.7-.1-6-2.7-7.6-8.8-3-11.5-5.3-18.5-4.1-30.3.6-6.3 2.9-7 6.8-7.3 3.9-.4 6.6 1.1 6.8 6.7.4 10.6 2.3 20.4 4.2 31.4 1 5.9-.4 8.4-6.1 8.3z" fill="#3da3e3"/><path d="m60.2 256.7c-5.7-.1-6-2.7-7.6-8.8-3-11.5-5.3-18.5-4.1-30.3.6-6.3 2.9-7 6.8-7.3 3.9-.4 6.6 1.1 6.8 6.7.4 10.6 2.3 20.4 4.2 31.4 1 5.9-.4 8.4-6.1 8.3z" fill="#3da3e3"/><path d="m66.3 248.6c-2-11.4-3.8-20.4-4.2-31.6-.2-6-3-5.4-6.8-6.9-.3-.1-.7.3-.9 0 3.3 2 5.7 1.3 5.8 6.9.3 11.5 2.3 20.6 4.3 32.2 1 5.6-.4 6.7-5.3 7.7h1c5.4-.7 7.2-2.2 6.1-8.3z" fill="#3da3e3"/><path d="m47.5 240.7c.2.5.4 1.1.6 1.7-.2-.6-.4-1.1-.6-1.7z" fill="#54667f"/><path d="m52 267c-1.2 5.5-7.1 15-5.8 19.9.5 2 3.6 3.6 5.8 3.9h.3c8.8.3 15.2-2.6 24.3-1.8.1-.7.1-1.4.2-2.1-9.7-1.1-15.2 2.1-24.5 1.9-1.4 0-3.8-1.2-4.1-2.6-.7-3.9 4.7-14.2 5.8-19 .9-3.6.9-10.2-.1-12.5-2.2-4.8-2.4-7.4-3.2-10.6.3.1.6.3.8.4-2.8-9.5-5.1-14.1-3.6-24.4-1 .6-2 1.3-2.9 2-.6 6.3.2 12.6 2.3 18.6v.1c.2.6.4 1.1.6 1.7 1.4 4.4 1.3 7.1 3.8 12.8 1.1 1.9 1 8.4.3 11.7z" fill="#54667f"/><path d="m47.5 240.6s0 .1 0 0z" fill="#54667f"/><path d="m113.9 294.4c-11.9-1.3-23.4-1.3-35.4-1.6-1.8 0-3.4-1.2-4.1-2.9l-1.1-2.8c15.1 2 30.7.5 46.3 2.7-.5.8-1 1.6-1.4 2.4-.8 1.6-2.5 2.4-4.3 2.2z" fill="#54667f"/><path d="m99.1 310.8h-3.2c-1.9 0-3.5-1.5-3.6-3.5-.1-5.7-.4-11.4-.2-17.1 3.4 0 6.7.1 10.1.3-.1 5.5.2 11.1.4 16.6.1 1.9-1.4 3.6-3.5 3.7z" fill="#54667f"/><path d="m113.9 294.4c-11.9-1.3-23.4-1.3-35.4-1.6-1.8 0-3.4-1.2-4.1-2.9l-1.1-2.8c15.1 2 30.7.5 46.3 2.7-.5.8-1 1.6-1.4 2.4-.8 1.6-2.5 2.4-4.3 2.2z" fill="#020202" opacity=".25"/><path d="m101.1 337.6c-2.5 0-5.1 0-7.6 0 0-2 0-4.5 0-6.4 0-.8 0-1.6 0-2.3 0-1.6 1.4-3 3-3h1.7c1.7 0 3 1.3 3 3-.1 2.9-.1 5.8-.1 8.7z" fill="#54667f"/><path d="m65.6 345.3 28-14.2v6.5l-20.1 7.7v1.4h-7.9z" fill="#54667f"/><path d="m129.1 345.4v1.4h-7.9c0-.5 0-1 0-1.4l-20.1-7.8c0-2.2 0-4.3 0-6.5 9.3 4.8 18.7 9.6 28 14.3z" fill="#54667f"/><path d="m101.1 346.8v1.1h-8.2v-1.1h1.9c0-5.2 0-10.4 0-15.7h5.2c-.2 5.2-.4 10.4-.5 15.6z" fill="#54667f"/><path d="m99.9 331.2c-.2 5.2-.4 10.4-.5 15.6h-2c-.6-5.2-1.2-10.4-1.7-15.7z" fill="#aab3ba" opacity=".54"/><path d="m129.1 345.4c-9.3-3.6-18.7-7.3-28-11v-3.3c9.3 4.8 18.7 9.6 28 14.3z" fill="#aab3ba" opacity=".54"/><path d="m119.7 289.8c-15.8-2.1-32.3-.9-47.9-2.9-2.9-.2-5.1-2.8-4.9-5.7 0-.1 0-.2 0-.3.3-2.9 2.2-5 5.4-4.3 14.8 3 33.1 1.5 48.6 3.5 3.4.5 4.6 2.8 4.3 5.4-.4 2.7-2 4.8-5.5 4.3z" fill="#3da3e3"/><path d="m120.9 280.2c-15.6-2.1-33.7-.5-48.6-3.6-1.7-.4-2.4.2-3.8 1h.1c16.3 2 32.6 1.4 48.7 3.7 3.5.5 4 2.8 4.2 5.5.1 1.3-1 2.2-1.6 3.1 2.5 0 5.2-1.5 5.2-4.3s-.7-5-4.2-5.4z" fill="#45c6db"/><path d="m130.7 343.8c.2-.2.1-.1 0 0z" fill="#ffbd9a"/><path d="m114.1 340.2c4.4 4.4 8.1 7 14.5 6.6 2.4-.2 2.7-1.3 2.1-2.9-.2-.7-.6-1.3-1.3-1.5-.5-.2-1.2-.3-2-.5-2.3-.8-3.6-2.5-4.7-4.9-.9-2-2.1-4.6-1.4-7 .2-.8.4-1.5.6-2.2.3-1 .6-2 .9-3 .2-.6.4-1.2.6-1.8l-5.1-2.2c-.6.7-1.1 1.5-1.6 2.3-.7 1.1-1.5 2.2-2.3 3.2-.9 1.2-1.7 2.6-2.2 4-1.5 3.6-1.9 6 1.9 9.9z" fill="#ffbd9a"/><path d="m143.5 327 .6 3.6 1 5.6c.5 4.6 4.2 7.7 8.9 8.2l18.6 2.2c1.2.2 2.4-.7 2.5-1.9 0-.1 0-.2 0-.3 0-.3-.1-.6-.2-.9-.2-.4-.4-.7-.6-1-1-1.1-2.2-1.9-3.6-2.3l-10.9-4.4c-2.3-.9-4.2-2.5-5.6-4.6l-2.4-7.5z" fill="#ffbd9a"/><path d="m142.2 291c-2.6 6-12.6 28.7-19.2 37.7-.7 1-2.1 1.3-3.2.7l-4.4-2.3c-1.1-.6-1.6-1.9-1.2-3.1 2.7-7 11.2-30.3 10.3-48.5-.1-1.4 1-2.5 2.3-2.6.8 0 1.5.3 2 .8l12.8 14.5c.9.9 1 2 .6 2.8z" fill="#005d91"/><path d="m114.5 326.1c.2.5.6.8 1.1 1.1l4.4 2.3.2.1c1.1.5 2.3.1 3-.8 6.6-9 16.6-31.8 19.2-37.7.4-.9.2-1.9-.4-2.6l-13-14.6c-.9-1-2.5-1.1-3.5-.2-.6.5-.9 1.2-.8 2 .9 18.2-7.6 41.5-10.3 48.5-.3.5-.3 1.3.1 1.9z" fill="#020202" opacity=".39"/><path d="m111.8 230.8c.2-.1.4-.2.5-.3 3.5-2.8 5.8-6.8 6.2-11.3 2.7 1.8 5.2 3.9 7.6 6.1l5.6 5 7.8 6.9c2.8 2.8 5.9 4.9 8.9 7.4 2.8 2.4 5.2 5.2 7.2 8.4 1.1 1.7 2.4 3.4 3.5 5 .4.5 1 1.3.4 1.9-.4.3-1 .5-1.5.5-.8 0-1.5-.3-2-.8l-3.1-3.3-3.2-2.6c-.2-.1-.4-.1-.5.1-.1.1-.1.3-.1.4l1.1 2.6c.2.6.2 1.3 0 1.9-.2.5-.8.7-1.3.4-.1-.1-.2-.2-.3-.3l-5.3-9.5-20.9-14.1c-1.7-1.2-3.6-2.2-5.6-2.8l-4.2-1.2z" fill="#ffbd9a"/><path d="m92.7 206.2c9.1-.8 18.1 2.8 24.1 9.7l.4.5c.3.4.6.9.7 1.5.2 1.1.3 2.3.3 3.4-.3 4.5-2.4 8.6-5.8 11.5-.1.1-.3.3-.5.4-.8.5-1.8.5-2.7.1-7-3.6-21.1-3.5-27-3.2-1.7.1-2.7.1-2.7.1s-3.3-22.6 13.2-24z" fill="#ff3a56"/><path d="m103.9 201.3c8 4.5 13.3 12.5 14.3 21.6-1.2-1-2.2-2.2-3.3-3.3-4.4-4.1-10.3-6.1-16.3-5.4-1.6.2-3.3.6-4.9.9-4 .7-8.1.5-12-.4-1.4-.9-2.3-1.4-2.3-1.4s10.1-20.2 24.5-12z" fill="#fc123f"/><path d="m47.3 239.8c3.1 5 9.3 5.5 14.6 4.6 19.9-3.4 17-33.5 17-33.5l8.6-23.5c-.6-.4-1.2-.9-1.8-1.3-1.4-.9-2.6-2.5-4.3-2.9h-.2c-.4-.1-.8-.1-1.1-.3-1-.4-1.8-1.1-2.2-2.1-.1-.4-.1-.8-.1-1.1 0-.9.6-1.7 1.3-2.2.2-.1.4-.1.6-.1h.4.1l1.1 1.2c.2.3.7.3.9.1.1-.1.2-.2.2-.3l.6-2.2c.5-1.8 2.1-2.9 3.9-2.8 3.3.3 8.1 1.2 11.7-.7l1.9-1.9.3-.3.7-.7c4.3-7.4-4-12.8-4-12.8s-8.6-5.9-17.6-2.6c-6 2.3-10.1 7.9-10.4 14.3-.3 4 .2 8.1 1.6 11.9l.1.3v.1c.1.2.2.5.2.7 1.2 4.8-2.4 8.3-6.6 10.4-.7.3-1.4.7-2.2.9-1.4.4-2.8.9-4.2 1.6-3 1.7-3.8 5.2-3.5 8.4.3 2.1 1.1 4.1 2.2 5.9v.1c.3.5.5.9.7 1.4.3.7.6 1.4.8 2.1.1.2.1.5.2.7.9 4.6-2.8 7.2-6.2 9.4-.9.6-1.8 1.3-2.6 2l-.2.2c-4.2 3.9-6.1 9.2-2.5 15z" fill="#54667f"/><path d="m80.5 206.4c3.8-.9 13.4-6.6 14.6-7.4l.1-.1c-1-1.3-1.9-2.7-2.7-4.2-.2-.4-.5-.9-.7-1.4-1-1.8-1.5-3.9-1.6-5.9l-6.1-4.6-1-.8-1.3-1c.3.4.5.8.8 1.2 0 .1.1.1.1.2l.1.1c.2.3.3.6.4.9s.2.6.4.9c0 .1 0 .2.1.2 0 .1.1.3.1.5.1.5.2 1 .2 1.5.1 1 0 2-.1 3.1 0 .3-.1.6-.1.8-.8 5.1-2.4 10-4.7 14.6-.6 1.5.1 1.8 1.4 1.4z" fill="#ffbd9a"/><path d="m77.7 180.8c.4 1 1.2 1.8 2.2 2.1.4.1.7.2 1.1.3h.2c.9.2 1.7.7 2.4 1.3.6.6 1.2 1.1 1.9 1.6.6.4 1.2.9 1.8 1.3.9.7 1.9 1.3 3 1.8.5.2 1.1.4 1.6.6 2.2.5 4.5-.1 6.2-1.6 2.1-1.7 3.8-3.8 5.1-6.2.4-.7 1-1.3 1.7-1.6.3-.1.7-.3 1-.5.4-.2.5-.6.3-1 0-.1-.1-.2-.2-.2-2-1.8-3.7-3.9-4.9-6.3-.2-.4-.5-.9-.7-1.4-.6.6-1.2 1.2-2 1.6-3.5 1.9-8.4 1-11.7.7-1.8-.2-3.5 1-3.9 2.8l-.5 2.1v.1c-.1.4-.5.6-.8.5-.1 0-.2-.1-.3-.2l-1.1-1.2c-.1 0 0 0-.1 0s0 0 0 0h-.4c-.2 0-.4.1-.6.1-.8.4-1.3 1.3-1.3 2.2-.1.2-.1.7 0 1.1z" fill="#ffbd9a"/><path d="m80.1 177.3 1.1 1.2c.2.3.7.3.9.1.1-.1.2-.2.2-.3v-.1l.5-2.1c.5-1.8 2.1-2.9 3.9-2.8 3.3.3 8.1 1.2 11.7-.7.8-.4 1.4-1 2-1.6 0-.1-.1-.2-.1-.3s-.1-.3-.2-.4c-.7-1.6-1.1-4.1-2-5.7s-2.6-2.7-5.9-1c-1.6.9-3.2 2.1-4.5 3.4-.7.6-1.4 1.3-2 2.1-2 2.1-3.7 4.5-5 7.1-.2.4-.3.7-.4 1.1-.1 0-.1 0-.2 0z" fill="#ffbd9a"/><path d="m78.9 175.9 1.2 1.4 1.1 1.2c.2.3.7.3.9.1.1-.1.2-.2.2-.3v-.1l.5-2.1c.5-1.8 2.1-2.9 3.9-2.8 3.3.3 8.1 1.2 11.7-.7.8-.4 1.4-1 2-1.6.3-.4.6-.8.9-1.3 4.3-7.4-4-12.8-4-12.8-4.5 0-9.8 6-13.5 11.3-1.8 2.5-3.4 5.1-4.9 7.7z" fill="#54667f"/><path d="m78.5 273.9c13 8.2 32 5.4 46.2 8.6 4.2 1 6.8 8 8.7 14.5 1 3.3 1.8 6.5 2.6 8.5 2.3 6.3 4.6 16.4 6.5 24.5.3 1.2 1.1 2.2 2.1 2.8 1 .5 2.1.7 3.2.4 1.3-.4 2.7-.8 3.9-1.3l.4-.2c1.6-.7 2.5-2.4 2.4-4.1-.8-13.1-3.9-33.5-8.5-47.7-1.2-3.9-2.8-7.6-4.7-11.1-7.7-12.7-17.9-12-30.3-13.9-11.3-1.7-24.3-5.4-36.7-8.2-2.2-.5-4.3.8-5 2.9-.8 2.2-1.2 4.6-1.4 6.9-.6 6.4 2 12 10.6 17.4z" fill="#005d91"/><path d="m67.8 256.6c2.3 4.6 5.6 8.3 10.8 9.9 6.4 1.9 13.3.7 19.7-1.1s12.8-4 19.5-4.2 13.9 2.2 17.4 7.8c1.1 1.7 1.8 3.6 2.9 5.3 2 2.7 4.7 4.6 7.9 5.6-1.2-3.9-2.8-7.6-4.7-11.1-6.3-10.4-14.3-11.8-23.7-13-.1.5-.2 1-.3 1.6s-.7 1.1-1.3 1c-2.8-.3-10.6-.7-20.5 3.9-10.4 4.7-22.6-.8-27.2-8.7-.3 1-.4 2-.5 3z" fill="#020202" opacity=".25"/><path d="m65.8 243.3c.2 1.8.4 3.5.6 5.3.3 1.8.9 3.5 1.8 5 4 6.9 13.9 12 23.3 10 1.3-.3 2.7-.7 3.9-1.3 2.1-.9 4.2-1.7 6.3-2.4 2.5-.7 5-1.2 7.6-1.5h.1c.6-.1 1.2-.1 1.7-.1h.6c1.4 0 2.7 0 4.1.2.6.1 1.2-.4 1.3-1 .1-.5.2-1 .3-1.6.1-.8 0-.1 0-.1 1.2-8.5-1.3-17.4-4.2-25.3-3.2-8.3-7.2-16.2-12-23.7-1.2-1.9-2.5-3.8-3.9-5.5-1.1-1.4-2.3-2.9-3.5-4.3.8 1.5.7 3.1-1.1 3.5-2.6.5-5.3-.4-7.3-2.3-.8-.7-1.4-2.5-2.5-3-.3-.2-.7-.2-1-.1-.5.1-1 .3-1.5.6-.2.1-.4.3-.6.4-1.3 1.3-2.4 2.7-3.2 4.3-1.8 2.6-3.5 5.3-5.1 8.1-1.5 2.8-2.7 5.7-3.6 8.7-.1 1-.4 1.9-.8 2.8-1.7 7.6-2.2 15.5-1.3 23.3z" fill="#ff3a56"/><path d="m67.2 220c.4-.9.7-1.8.8-2.8-.3.9-.5 1.8-.8 2.8z" fill="#ff3a56"/><path d="m106.5 250.3 11.3 5.5c.6.3 1.3.6 2 .8l15.1 5 15.2 5c.3.1.5.2.8.4l2.6 2.2c1.4 1.1 2.3 2.8 2.5 4.5l.4 3.4c.2 1.5 1.5 2.7 3 2.6.6 0 1.1-.4 1.2-1l.7-5.8c.2-1.3-.2-2.6-.9-3.7l-4.2-5.9c-.3-.5-.8-.9-1.3-1.2l-22.7-12.3c-.8-.4-1.5-1-2.2-1.6l-10.3-9.1-2.1-1.9-2.1-1.8-1.2 1.9z" fill="#ffbd9a"/><path d="m79.8 221.3c0 .2 0 .5.1.7 1.7 6.4 5.6 12 11 15.8 8.5 6 14.5 11.4 15.6 13.6 1 1.9 3.1 1.8 3.8.7.1-.2.2-.5.2-.7 0-1.7 1.1-2.8 3.1-5.1.4-.5 1.1-1.1 1.8-1.8 1.6-1.5 3.1-3.3 4.3-5.1.8-1.1 1.1-2.5.8-3.8 0 0-19.9-24.7-30.7-23.8s-10 8.1-10 9.5z" fill="#ff3a56"/><path d="m144.6 332.8.6 3.5c.5 4.6 4.2 7.7 8.9 8.2l18.6 2.2c1.2.2 2.4-.7 2.5-1.9 0-.1 0-.2 0-.3 0-.3-.1-.6-.2-.9-.2-.4-.4-.7-.6-1-1.3-.1-2.5 0-3.8.3-4.9.8-9.9.6-14.7-.9-1.7-.5-3.2-1.4-4.4-2.6-1.2-1.3-1.7-3.1-1.3-4.8.5-1 1.1-2 1.8-2.9l-.4.2c-1.2.5-2.6.9-3.9 1.3-1 .2-2.2.1-3.1-.4z" fill="#ffab8b"/><path d="m68 216.9v.3c.9-3 2.1-5.9 3.6-8.7 1.6-2.8 3.2-5.5 5.1-8.1 1.4-2.1 2.7-4.7 5.4-5.3.3-.1.7 0 1 .1.4-1.5.8-3 1-4.6 0-.3.1-.6.1-.8.2-1.5.2-3.1-.1-4.6 0-.2-.1-.3-.1-.5 0-.1-.1-.2-.1-.2-.7-.6-1.5-1.1-2.4-1.3h-.2c-.4-.1-.8-.1-1.1-.3-1-.4-1.8-1.1-2.2-2.1-.1-.4-.1-.8-.1-1.1 0-.9.6-1.7 1.3-2.2.2-.1.4-.1.6-.1h.4.1l1.1 1.2c.2.3.7.3.9.1.1-.1.2-.2.2-.3l.6-2.2c.5-1.8 2.1-2.9 3.9-2.8 3.3.3 8.1 1.2 11.7-.7l1.8-1.9.3-.3c-.2-.1-.3-.1-.5-.2-1.3-.4-3 .2-4.4.4-2.8.3-5.7 0-8.4-.9-.6-.2-1.2-.4-1.7-.7s-1.2-.5-1.8-.8c-1.1-.5-2.1-.9-3.3-1.3-2.3-.7-5.1-.6-6.9 1-2.6 2.3-2.2 6.5-1 9.8 1.3 3.5 4.9 6.9 4.4 10.9s-5.7 6.6-7.8 9.8c-3.2 4.6-3.3 7.5-2.2 13 .4 1.7.7 3.5.8 5.4z" fill="#213949" opacity=".79"/><path d="m60.7 242.7c.3.6.7 1.2 1.2 1.7 1.3-.2 2.7-.6 3.9-1.1-.9-7.8-.4-15.7 1.4-23.3-.9 1.8-2 3.6-3.1 5.3-2.5 4.2-3.9 9-3.9 13.9-.1 1.1.1 2.4.5 3.5z" fill="#213949" opacity=".79"/><path d="m49.9 224.7c.5-.2.8-.5 1.3-.6.4-.1.8-.1 1.1-.1 1.6.2 3.1.3 4.7.3s3.1-.7 4-2c.6-1.1.8-2.5.5-3.7-.2-1.3-.6-2.6-1.1-3.9-.5-1.1-1-2.2-1.6-3.3-.4-.7-.9-2.1-1.6-2.6.3.5.5.9.7 1.4.3.7.6 1.4.8 2.1.1.2.1.5.2.7.9 4.6-2.8 7.2-6.2 9.4-.9.6-1.8 1.3-2.6 2z" fill="#213949" opacity=".79"/><path d="m82.3 178.2c.2-.1.3-.2.4-.3.1-.2.2-.4.2-.7.3-.6.8-1 1.4-1.1s1.3 0 1.9.1c.9.2 1.8.4 2.8.5 1.4.1 2.8.1 4.2-.2 2.1-.3 4.1-1 5.8-2.1.8-.6 1.6-1.3 2.2-2.1-.2-.4-.5-.9-.7-1.4-.6.6-1.2 1.2-2 1.6-3.5 1.9-8.4 1-11.7.7-1.8-.2-3.5 1-3.9 2.8z" fill="#ffab8b"/><path d="m83.7 184.6c0 .1 0 .2.1.2 0 .1.1.3.1.5.1.5.2 1 .2 1.5.3.3.6.5.9.7.6.4 1.2.6 1.8.9 1.4.9 2.2 2.4 3.3 3.7.5.6 1.1 1 1.8 1.3-.7-1.3-1.1-2.7-1.4-4.2-1.1-.5-2.1-1.1-3-1.8-.6-.4-1.2-.9-1.8-1.3-.7-.5-1.4-1-2-1.5z" fill="#ffab8b"/><path d="m110.3 252.1 7.5 3.7c.6.3 1.3.6 2 .8l.7.2 14.5 4.8c-1.8-1.6-3.8-2.9-6-3.8-1.1-.4-2.2-.9-3.2-1.5s-1.9-1.4-3-2c-.6-.4-1.3-.7-2-1-1.6-.7-3.1-1.4-3.9-2.9-.7-1.4-.7-3.1 0-4.5-.4-.5-.9-.9-1.4-1.4l-.1.1-.1.1-.1.1-.1.1-.1.1-.1.1c-.4.4-.7.8-1 1.1-2 2.3-3.1 3.4-3.1 5.1-.3.4-.4.6-.5.8z" fill="#ffab8b"/><path d="m119.6 239.4c-1.2 1.9-2.7 3.6-4.3 5.1.5.4.9.9 1.4 1.4.1-.3.2-.5.3-.7.6-1.2 1.5-2.3 2.1-3.6.4-.7.5-1.4.5-2.2z" fill="#ffab8b"/><path d="m79.9 196.2c.2.4.4.7.7 1.1 1.2 1.8 2.9 3.3 4.9 4.2.6.4 1.3.8 2 1.1 1.3.4 2.7.5 4 .3 1.7 0 3.4-.4 5-1.1l.1-.1c.6-.4.8-1.3.4-1.9-.8-1.3-1.5-2.6-3.1-2.9.8 1.5.7 3.1-1.1 3.5-2.6.5-5.3-.3-7.3-2.2-.8-.7-1.4-2.5-2.5-3-.3-.2-.7-.2-1-.1-.8.2-1.5.6-2.1 1.1z" fill="#fff"/><path d="m79.8 225.1c.7 3.7 2.2 7.2 4.4 10.3 1.3 1.8 2.7 3.4 4.2 4.9.3.3.5.7.8 1 1.2 1.3 2.5 2.4 3.7 3.6 3.1 3.1 5.3 6.9 6.6 11 .4 1.5.9 3.2 2.2 3.9 2.5-.7 5-1.2 7.6-1.5h.1c.6-.1 1.2-.1 1.7-.1h.6c1.4 0 2.7 0 4.1.2.6.1 1.2-.4 1.3-1 .1-.5.2-1 .3-1.6.1-.8 0-.1 0-.1l-7.3-3.6c-.7 1.1-2.8 1.2-3.8-.7-1.1-2.3-7.1-7.7-15.6-13.6-5.4-3.8-9.3-9.4-11-15.8-.4.8 0 1.9.1 3.1z" fill="#fc123f"/><path d="m133.4 297c1 3.3 1.8 6.5 2.6 8.5 2.3 6.3 4.6 16.4 6.5 24.5.5 2.1 2.6 3.6 4.7 3.3-.3-4.3-1.1-8.6-2.5-12.7-2.8-8.3-6.9-16.1-11.3-23.6z" fill="#020202" opacity=".39"/><path d="m130.7 343.8c.2-.2.1-.1 0 0z" fill="#ffab8b"/><path d="m114.1 340.2c4.4 4.4 8.1 7 14.5 6.6 2.4-.2 2.7-1.3 2.1-2.9-.2-.7-.6-1.3-1.3-1.5-.2 0-.3-.1-.5-.1-1.4-.1-2.8.1-4.2-.1s-2.7-.8-3.8-1.6c-1.8-1.1-3.2-2.7-3.9-4.7s0-4.2 1.7-5.5c.5-.3 1-.5 1.5-.8l-.2-.1-4.4-2.3c-.5-.2-.8-.6-1.1-1.1 0 0 0 .1-.1.1-.9 1.2-1.7 2.6-2.2 4-1.5 3.7-1.9 6.1 1.9 10z" fill="#ffab8b"/><path d="m224.3 88.1h169.8v105.1h-169.8z" fill="#fff" opacity=".74"/><path d="m230.2 93.5h157.9v94.3h-157.9z" fill="#c6edf7"/><g fill="#fff"><path d="m269.8 111.6c2.3-1.3.7 1.3.7 1.3s-1.6 2-1.6 3.4 2.1.9 2.4.6.4 1.8.4 1.8-1.7-.4-2.7-.6-1.5 8.5-1.8 9.5-1.6 0-1.6 0 2-14.7 4.2-16z"/><path d="m268.3 105.8c.7-2 5.7-3.6 8.6.5s3.3 12.1.4 15.4-5.4 3.5-7.3 2.2c-2.7-1.7.6-4.5.4-9.3s-3.3-5.1-2.1-8.8z"/><path d="m259.2 116.9c.3.3 2.4.8 2.4-.6s-1.6-3.4-1.6-3.4-1.6-2.7.7-1.3 4.4 16 4.4 16-1.3 1-1.6 0-.8-9.8-1.8-9.5-2.7.6-2.7.6-.1-2.1.2-1.8z"/><path d="m262.2 105.8c1.3 3.7-1.7 4-2 8.8s3 7.6.4 9.3c-2 1.3-4.4 1.2-7.3-2.2s-2.5-11.4.4-15.4 7.8-2.5 8.5-.5z"/><path d="m374.3 107.7s-2.6-2.6-8.9-2.8-9.4 4.4-10.1 4.8-1.6 6.9-1.6 6.9.6 3.3-1.6 4.6l-1.8 1.1c-.3.2-.6.4-.8.7-.4.6-.5 1.5 1.2 2.1.9.3 0 3.4 0 3.4-.1 1.1 0 2.1.1 3.2.3 2.2 3 2.4 6.4 2.2s4.8 1.5 4.6 4.2c-.3 2.2-.9 4.3-1.8 6.4l13.3-.3s-1.1-6.4.9-11.2 4.6-4 4.9-12.7-4.8-12.6-4.8-12.6z"/><path d="m288.8 107h51.7v2.1h-51.7z"/><path d="m288.8 112.7h51.7v2.1h-51.7z"/><path d="m308.7 118.8h31.8v2.1h-31.8z"/><path d="m288.3 138.7h51.7v2.1h-51.7z"/><path d="m288.3 144.5h51.7v2.1h-51.7z"/><path d="m308.2 150.5h31.8v2.1h-31.8z"/></g><path d="m158.4 203.6h12.6v3.8h-12.6z" fill="#213949"/><path d="m165.6 202.6h3.4c1.1 0 2.1.9 2.1 2.1v1.8c0 1.1-.9 2.1-2.1 2.1h-3.4c-1.1 0-2.1-.9-2.1-2.1v-1.8c0-1.2.9-2.1 2.1-2.1z" fill="#213949"/><path d="m155 238.8-2.2-.3c-1-.1-1.7-1-1.6-2.1l3.6-35.4c.1-1 1-1.8 2-1.7l2.2.3c1 .1 1.7 1 1.6 2l-3.6 35.4c0 1.2-.9 1.9-2 1.8.1.1.1.1 0 0z" fill="#213949"/><path d="m158.7 202.6c.1-.5-.3-1-.9-1.1-.5-.1-1.1.3-1.1.8v.1l-3.4 33.3c-.1.5.3 1.1.9 1.1.5.1 1.1-.3 1.1-.8v-.1" fill="#54667f"/><path d="m149.6 238h22.6c.4 0 .8.3.8.8 0 .4-.3.8-.8.8h-22.6c-.4 0-.8-.3-.8-.8 0-.4.4-.8.8-.8z" fill="#213949"/><path d="m155.8 180.6 18.3 42c.3.7.8 1.3 1.4 1.7l2.4 1.5-22.2-50.7-.3 2.7c-.1.9 0 1.9.4 2.8z" fill="#213949"/><path d="m153.1 170.6 25.2 58.1c.3.6 1 .9 1.6.7l1.8-.9-26.5-61-1.3.6c-.8.4-1.2 1.5-.8 2.5z" fill="#54667f"/><path d="m157.3 166.5-1.9.9 26.5 61 2.1-1c.5-.2.7-.8.5-1.4l-25.6-59c-.4-.6-1-.8-1.6-.5z" fill="#fff"/><path d="m156.7 166.7 14.9-20.4c6.1-8.3 17.8-10.2 26.1-4.1 2.5 1.8 4.5 4.2 5.8 7l26.6 55.6c4.4 9.3.5 20.4-8.8 24.9-3.3 1.6-7.1 2.2-10.7 1.6l-25.8-3.7" fill="url(#a)" opacity=".47"/><path d="m194.7 238.2c.4.6 2.4 1 5.5 1.4h80.8l-.4-2.6-.3-1.9c3-3 4.9-7 5.4-11.2.1-.7.1-1.4.1-2.1-.6-8.5-2.6-20.2-4.3-28.8-1.4-7.1-6.3-13-12.9-15.7l-8-3.3-2.8-1.2c-3.2-1.3-6.5-2.3-9.9-3-13.6-2.8-22.8 1.1-28 4.8-2 1.3-3.7 2.9-5.2 4.8l-4.6 4-1.6 1.4c-4.9 4.2-8.1 10-9.4 16.3-2.6 13-6.3 34.3-4.4 37.1z" fill="#fff"/><path d="m205.2 233.3c0 .9.6 1.7 1.5 2 .8.3 1.7.4 2.6.4 6.2.1 12.5 1.1 17.9 4h47.5c1.4-.2 2.8-.7 4.1-1.4 1.1-.6 1.8-1.9 1.6-3.1 1.5-1.5 2.7-3.2 3.6-5.1s1.5-4 1.8-6.1c-.9-9.4-2.4-18.7-4.3-28l-16.2-2.2-.7 23.2c-.1 2.2-1.6 4.2-3.7 4.8l-28.6 8.6-.8.3 1.6 5.4v.2c-.9.2-1.9.3-2.8.4-.9 0-1.8-.2-2.7-.6-1.2-.5-2.4-1.1-3.5-1.9-.1 0-.2-.1-.3-.2-2.9-2-5.4-4.2-5.9-4.1s-2.9.6-5.5 1.1l-4.4.8c-.6.1-1.3 0-1.8-.3-.6.5-1 1.1-1 1.8z" fill="#e4e7e9"/><path d="m205.5 230.9c.2.3.4.5.7.6.5.3 1.2.4 1.8.3l4.4-.8c2.6-.5 5.1-1 5.5-1.1s3 2.1 5.9 4.1l.3.2c1.1.7 2.3 1.4 3.5 1.9.9.4 1.8.6 2.7.6 1.2-.1 2.4-.3 3.6-.5l-1.6-5.7-.1-.2s-8-4.2-11.5-5.4l-.6-.2c-3-.8-14.6 4.8-14.8 5.6-.2.2-.1.5.2.6z" fill="#ffbd9a"/><path d="m232.2 230.4 1.6 5.7c.9-.4.7-.9.7-.9z" fill="#ffbd9a"/><path d="m232.2 230.4 1.6 5.7v.1c.2.6.6 1.2 1.1 1.6.2.2.4.3.6.4.5.2 1 .4 1.6.3l8.5-.4 1.1-.1 26.4-1.1c6.1-.2 11.2-4.7 12.4-10.7.1-.8.2-1.5.3-2.2-.9-9.5-2.4-18.9-4.3-28.2l-16.2-2.2-.2 7.2-.5 16c-.1 2.2-1.6 4.2-3.7 4.8z" fill="#fff"/><path d="m219.3 199.4c-.6 1.4-.6 2.9.1 4.3l7.4 14.9v.4l.1-.3.1.1s0-.1 0-.3l9.9-31.1c.1-.5.6-.7 1.1-.6.2.1.4.2.5.4l.5.8c.4.6 1.2.8 1.8.4.2-.1.3-.2.4-.4 2.3-3.5 8.9-8.6 13.3-11.7-1.9-3.7-5.1-6.4-9.1-7.6-1.1-.3-2.3-.5-3.4-.5-6.5.1-12.9 2-18.4 5.7 0 0-.1.1-.1.1-1.2.8-2.3 1.8-3.1 3-2 3.1-1 7.2-1.8 10.8l2.4 3.7c.7 1.1.8 2.6.3 3.8z" fill="#55d3b9"/><path d="m220.7 180.1 6.5.9s1.3 0 3.3-.1c3.2-.1 8.3-.4 12.8-1.1 7.8-1.1 14-3.4 6.9-7.6-.4-.2-.7-.4-1-.6-3.3-2-6-4.9-7.7-8.3s-2-7.3-.9-10.9c0 0-13.6-2.8-13.1 7.4v2.2c-.1 3.1-.9 6.2-2.4 9-.7 1.3-1.6 2.6-2.8 3.6z" fill="#ffbd9a"/><path d="m214.6 130.6c.4 6.5 1.8 7.6 6.5 6.9 1.6-.2 3.7-.7 6.3-1.2 9.1-1.8 13.2 10.8 14 11.9l.2-.2c.2-.5.4-1 .8-1.4.3-.3.6-.6.9-.9l-1 4.1-1.1 4.6s.5 1.8 3.3 1.5 7.7-4.8 10.2-9.1 1.4-7.7 0-14.8-6.2-7.4-12.2-7.7c-5-.2-5.4-1.8-8.4-4.2-.7-.5-1.4-1-2.1-1.5-5.2-3.1-18 3.2-17.4 12z" fill="#54667f"/><path d="m241.4 148.2c.1.1.1.1.2 0s0-.1.1-.2z" fill="#54667f"/><path d="m234.1 120.1c1 2.1 1.8 4.3 2.4 6.6 1.1 3.3 2.5 6.7 5.3 8.7 2.1 1.5 5.1 2.1 6.4 4.4 1.2 2.1.5 4.8-.7 6.9-.6 1.1-3 2.1-5.3 3.1l-1.1 4.6s.5 1.8 3.3 1.5 7.7-4.8 10.2-9.1 1.4-7.7 0-14.8-6.2-7.4-12.2-7.7c-4.9-.2-5.4-1.8-8.3-4.2z" fill="#213949"/><path d="m216 152.8c.3.2.7.4 1.1.6.9.5 1.6 1.1 2.2 1.9 1.7 2.2 3.8 4.1 6.1 5.6.4.2.8.4 1.2.6 2.5 1.1 4.4 1.3 6.7.3 2.6-1.2 4-3.3 6-5.4l.4-.5c1.1-1.3 2-2.8 3.5-3.6l.2-.1c.4-.2.8-.3 1.1-.6 1-.7 1.7-1.7 1.9-2.8 0-.4 0-.9-.1-1.3-.3-.9-.9-1.7-1.8-2-.2 0-.5 0-.7 0h-.1l-.4.1c-.1 0 0 .1-.3-.1s-.4-.6-.6-1c-3-4.8-10.2-10.1-14.6-11.3-8.6-2.3-6.4 4-7.3 8.7l-.1.2c-1.1 4.8-1.9 6.1-4.9 9.2-.2.7 0 1.1.5 1.5z" fill="#ffbd9a"/><path d="m214.6 130.6c.6 8.8 2.8 7.7 12.8 5.7s13.9 13.3 14.2 11.9c.3-1 .9-1.9 1.7-2.6l3.4-5.7-15.6-9.4h-16.5z" fill="#54667f"/><path d="m228.6 222.4.1-.3v-.2l10.5-32.7c.2-.5.7-.8 1.2-.6.2.1.4.2.5.4l.5.8c.4.6 1.2.8 1.9.4.2-.1.3-.2.4-.4 2.4-3.7 9.4-9 14-12.3.8-.5 1.4-1 2-1.4s1-1.2.8-2l-2.8-1.2c-3.2-1.3-6.5-2.3-9.9-3-4.1 5.7-11.9 12.4-15.7 15.6-1.4 1.2-2.3 2.9-2.4 4.8l-1.1 29.8-.1 2z" fill="#e4e7e9"/><path d="m226.7 219 .1-.3.1-.2 9.9-31.1c.1-.5.6-.7 1.1-.6.2.1.4.2.5.4l.5.8c.4.6 1.2.8 1.8.4.2-.1.3-.2.4-.4 2.3-3.5 8.9-8.6 13.3-11.7.7-.5 1.4-1 1.9-1.4.9-.6 1.1-1.8.5-2.7-.1-.2-.3-.4-.5-.5-1.8-1.1-4.3-2.7-6.2-3.9-1.8-1.1-3.2-1.8-3.3-1.6-.4.8-.8 1.5-1.3 2.2l-.2.3c-2.8 4-7.5 8.5-11.3 11.9-1.5 1.3-2.8 2.4-3.8 3.3-1.4 1.1-2.2 2.8-2.3 4.5l-1.1 28.3-.1 1.9z" fill="#fff"/><path d="m210 183.4c.2.9.6 1.8 1.2 2.5l3.4 4.5 3.1 4.1c.9 1.2 1.2 2.9.7 4.4l-1.8 4.9c-.6 1.6-.4 3.4.5 4.9l9.9 16.6.1.2.1.1s0-.1 0-.3c0-.4-.1-1.1-.2-2.2-.6-6.3-2.3-23.1-2.4-31.3-.1-6.4-2.5-12.8-4.3-16.7-.1-.2-.2-.3-.3-.5-2 1.3-3.7 2.9-5.2 4.8z" fill="#e4e7e9"/><path d="m215.8 183.7 2.6 4.1 2.4 3.7c.7 1.1.8 2.6.3 3.8l-1.8 4.1c-.6 1.4-.6 2.9.1 4.3l7.4 14.9.1.1.1.1s0-.1 0-.3c0-.4 0-1-.1-1.9-.1-5.5-.4-20 .1-27.1.4-5.5-1.3-11.2-2.6-14.6-.2-.4-.4-.8-.8-1.1-1-.8-2.4-.9-3.4-.1l-2.8 2.1c-2.6 1.9-3.2 5.3-1.6 7.9z" fill="#fff"/><path d="m220.7 142c.6.1 1.3.2 1.9.2 2.7-.1 5.3-1.6 7.9-1.3s4.6 2.5 5.9 4.7c.4.8.9 1.5 1.5 2.2s1.5 1 2.4.9c.4-.1.7-.2 1-.5-.9-1.2-5-13.8-14-11.9-2.6.5-4.6 1-6.3 1.2.1 1.5 0 3-.3 4.5z" fill="#ffab8b"/><path d="m225.2 170.9c.3.1.5.2.8.2 1.3.1 2.3-1 3.2-1.9 1-1.1 2.2-2.1 3.5-2.9 1.1-.5 2.2-1.2 3.2-1.9 1.5-1.4 2.6-3.2 3-5.2.3-1.1.6-2.3 1-3.4l-.4.5c-2 2.1-3.4 4.2-6 5.4-1.8.9-4 .9-5.9.1-.1 3.2-.9 6.3-2.4 9.1z" fill="#ffab8b"/><path d="m230.5 180.9c1 0 2.1-.1 3.4-.2 3.8-3.4 8.6-7.9 11.3-11.9l.2-.3c-1.6-1.5-3-3.3-3.9-5.3-.3.2-.5.5-.6.9-.2.9.5 1.3.9 2 1.5 2.4.1 4.8-2 6.2-1.4 1-3 1.6-4.2 2.9-.9 1-1.5 2.2-2.4 3.2s-1.9 1.6-2.7 2.5z" fill="#ffab8b"/><path d="m232.3 230.4 28.6-8.6c2.1-.6 3.6-2.6 3.7-4.8l.5-16c-.3.1-.5.3-.7.5-1.2 1.2-2.1 2.7-2.8 4.2-.7 1.4-1.1 2.9-1.7 4.4-1 2.2-2.4 4.3-3.9 6.2-2.1 2.8-4.4 5.5-7.4 7.2-1.8.9-3.7 1.6-5.7 2.1-3.9 1.1-8 2.2-12.1 1.7-3.4-.5-6.6-2.1-10-2.5 3.5 1.2 11.5 5.4 11.5 5.4z" fill="#e4e7e9"/><path d="m228.2 235.2-29.3-5.7c-1.1-.2-2.1.6-2.3 1.6v.3 7.4h34.6c0-1.7-1.3-3.2-3-3.6z" fill="#c3c9ce"/><path d="m196.6 233.7v5.9h34.6v-.4c0-.6-.4-1.1-1.1-1.3l-32.1-5.5c-.7-.1-1.3.4-1.5 1 .1.2.1.2.1.3z" fill="#54667f"/><path d="m358.2 334.7h59.8c4.1 0 7.4 3.3 7.4 7.4 0 4.1-3.3 7.4-7.4 7.4h-59.7c-4.1 0-7.4-3.3-7.4-7.4-.1-4.1 3.2-7.4 7.3-7.4z" fill="#213949" opacity=".82"/><g opacity=".81"><path d="m359.7 246.3h58.1v3.6h-58.1z" fill="#72c5e3" transform="matrix(1 -.00157079 .00157079 1 -.3891 .611)"/><path d="m359.7 249.8h58.1v21.2h-58.1z" fill="#fff" transform="matrix(1 -.00157079 .00157079 1 -.4086 .611)"/><path d="m364 253.2h49.6v14.4h-49.6z" fill="#72c5e3" transform="matrix(1 -.00157079 .00157079 1 -.4085 .611)"/><path d="m380.1 256.9h17.4v3.7h-17.4z" fill="#fff" transform="matrix(1 -.00157079 .00157079 1 -.406 .611)"/></g><g opacity=".81"><path d="m359.8 270h58.1v3.5h-58.1z" fill="#72c5e3" transform="matrix(1 -.00157079 .00157079 1 -.4264 .6111)"/><path d="m359.8 273.5h58.1v21.2h-58.1z" fill="#fff" transform="matrix(1 -.00157079 .00157079 1 -.4458 .6111)"/><path d="m364 276.9h49.6v14.4h-49.6z" fill="#72c5e3" transform="matrix(1 -.00157079 .00157079 1 -.4458 .6111)"/><path d="m380.1 280.6h17.4v3.7h-17.4z" fill="#fff" transform="matrix(1 -.00157079 .00157079 1 -.4433 .6111)"/></g><g opacity=".81"><path d="m359.8 293.7h58.1v3.5h-58.1z" fill="#72c5e3" transform="matrix(1 -.00157079 .00157079 1 -.4637 .6112)"/><path d="m359.8 297.3h58.1v21.2h-58.1z" fill="#fff" transform="matrix(1 -.00157079 .00157079 1 -.4831 .6112)"/><path d="m364.1 300.7h49.6v14.4h-49.6z" fill="#72c5e3" transform="matrix(1 -.00157079 .00157079 1 -.4831 .6112)"/><path d="m380.2 304.4h17.4v3.7h-17.4z" fill="#fff" transform="matrix(1 -.00157079 .00157079 1 -.4805 .6112)"/></g><path d="m359.8 317.4h58.1v3.5h-58.1z" fill="#c6edf7" transform="matrix(1 -.00157079 .00157079 1 -.5009 .6112)"/><path d="m359.9 321h58.1v21.2h-58.1z" fill="#c6edf7" transform="matrix(1 -.00157079 .00157079 1 -.5203 .6113)"/><path d="m364.1 324.4h49.6v14.4h-49.6z" fill="#c6edf7" transform="matrix(1 -.00157079 .00157079 1 -.5204 .6113)"/><path d="m380.2 328.1h17.4v3.7h-17.4z" fill="#c6edf7" transform="matrix(1 -.00157079 .00157079 1 -.5178 .6113)"/><g opacity=".81"><path d="m359.8 317.2h58.1v3.5h-58.1z" fill="#72c5e3" transform="matrix(1 -.00157079 .00157079 1 -.5005 .6112)"/><path d="m359.9 320.7h58.1v21.2h-58.1z" fill="#fff" transform="matrix(1 -.00157079 .00157079 1 -.5199 .6113)"/><path d="m364.1 324.1h49.6v14.4h-49.6z" fill="#72c5e3" transform="matrix(1 -.00157079 .00157079 1 -.5199 .6113)"/><path d="m380.2 327.8h17.4v3.7h-17.4z" fill="#fff" transform="matrix(1 -.00157079 .00157079 1 -.5174 .6113)"/></g><path d="m388.9 180.1c-.8 0-1.6.2-2.3.6-.6.4-1 .9-1.4 1.5-1.7 3.1-.5 7 1.2 10.2 1.8 3.5 4 6.7 5.8 10.2 1.9 3.4 3 7.3 3 11.2 1.8-2.8 3.2-5.7 4.4-8.8 1.8-5.3 1.6-11.2-.5-16.4-1.7-4.3-5.5-8.5-10.2-8.5z" fill="#72c5e3"/><path d="m378.1 203.7c-1.3-.3-2.7-.4-4-.3-2.2.2-4.1 1.6-5 3.7-1 2.8.8 6 3.4 7.6 3.2 1.8 7.1 1.8 10.6 2.4 2.5.5 5.1 1.4 6.8 3.4.3-4.4 0-8.9-3.3-12.2-1.8-1.7-3.8-2.9-6.1-3.8-.8-.4-1.6-.6-2.4-.8z" fill="#72c5e3"/><path d="m410.7 203.6c-1-1.2-2.6-1.9-4.2-1.8-2 .2-3.4 2-4.1 3.8-.7 1.6-1.1 3.3-1.2 5-.2 3.9 1.2 8.2-.9 11.5 7.4-1.2 12.5-8.2 11.3-15.6 0-.2-.1-.5-.1-.7 0-.8-.3-1.5-.8-2.2z" fill="#72c5e3"/><path d="m391.4 188.4c2.9 6.9 3.4 14.3 3.6 21.7v1.5c.1 4.2.5 8.5.4 12.7 0 2-.2 4-.4 6h1.6c.3-1.1.8-2.1 1.3-3.1 1-1.9 2.3-3.7 3.7-5.3l1.3-1.5c3.1-3.7 5.2-8.2 6.1-13 0-.2-.3-.3-.3-.1-1.3 5.6-4.3 10.2-8 14.5-1.6 1.9-3 3.9-4.1 6.2l-.2.5c.2-1.8.2-3.7.2-5.6-.1-3.4-.3-6.8-.5-10.3l-.1-2.3c-.4-7.6-1-15.2-4.1-22.2-.3-.2-.6 0-.5.3z" fill="#55d3b9"/><path d="m374.5 209.3c5.5 2.7 11.3 4.8 14.6 10.3l.1.1c2 3.3 3.5 6.9 4.5 10.6h1.2c-1-3.9-2.7-7.6-4.8-11l-.4-.6c-3.6-5.4-9.2-7.4-14.9-9.8-.4-.2-.7.2-.3.4z" fill="#55d3b9"/><path d="m404.7 230.8v.3l-.1.8-.3 1.9-.2 1.3-.4 2.7-.1.7-.4 2.5-.2 1.3-.4 2.7-.1.5c0 .2-.2.4-.5.4h-11.4c-.2 0-.4-.2-.5-.4l-.2-1.6v-.4l-.1-1.1-.1-.7v-.1l-.6-4.8v-.3l-.2-1.3-.1-.6v-.2l-.2-1.6-.1-.6-.3-1.4c0-.3.2-.5.4-.5h.1 15.3c.3 0 .5.2.5.4.2 0 .2 0 .2.1z" fill="#fff"/><path d="m388.7 232.7-.1-.6z" fill="#ecedf2"/><path d="m389.2 236.7v-.3z" fill="#ecedf2"/><path d="m389 235.1-.1-.6z" fill="#ecedf2"/><path d="m404.7 230.8v.3l-.1.8-.3 1.9-.2 1.3-.4 2.7-.1.7-.4 2.5-.2 1.3-.4 2.7-.1.5c0 .2-.2.4-.5.4h-11.4c-.2 0-.4-.2-.5-.4l-.2-1.6v-.4l-.1-1.1-.1-.7c1.4-1.4 3.1-2.4 5-2.8 7.1-2 7-6.1 6.4-8.5h3c.4-.2.6.1.6.4 0-.1 0-.1 0 0z" fill="#72c5e3"/></svg>