<?xml version="1.0" encoding="utf-8"?>
<!-- Generator: Adobe Illustrator 24.0.0, SVG Export Plug-In . SVG Version: 6.00 Build 0)  -->
<svg version="1.1" id="Calque_1" xmlns="http://www.w3.org/2000/svg" xmlns:xlink="http://www.w3.org/1999/xlink" x="0px" y="0px"
	 viewBox="0 0 450 401" style="enable-background:new 0 0 450 401;" xml:space="preserve">
<style type="text/css">
	.st0{fill:none;stroke:#236D9B;stroke-linecap:round;stroke-miterlimit:10;}
	.st1{fill:none;}
	.st2{fill:#FFFFFF;}
	.st3{fill:#C6EDF7;}
	.st4{opacity:0.79;fill:#FFFFFF;enable-background:new    ;}
	.st5{fill:#72C5E3;}
	.st6{fill:#213949;}
	.st7{fill:#3DA3E3;}
	.st8{fill:#2EC4A9;}
	.st9{opacity:0.14;fill:#213949;enable-background:new    ;}
	.st10{fill:#FFBD9A;}
	.st11{fill:#AAB3BA;}
	.st12{fill:#C3C9CE;}
	.st13{fill:#54667F;}
	.st14{opacity:0.25;fill:#020202;enable-background:new    ;}
	.st15{opacity:0.54;fill:#AAB3BA;enable-background:new    ;}
	.st16{fill:#45C6DB;}
	.st17{fill:#005D91;}
	.st18{opacity:0.39;fill:#020202;enable-background:new    ;}
	.st19{fill:#FF3A56;}
	.st20{fill:#FC123F;}
	.st21{fill:#FFAB8B;}
	.st22{opacity:0.79;fill:#213949;enable-background:new    ;}
	.st23{opacity:0.74;fill:#FFFFFF;enable-background:new    ;}
	.st24{opacity:0.47;fill:url(#SVGID_1_);enable-background:new    ;}
	.st25{fill:#E4E7E9;}
	.st26{fill:#55D3B9;}
	.st27{opacity:0.82;fill:#213949;enable-background:new    ;}
	.st28{opacity:0.81;}
	.st29{fill:#ECEDF2;}
</style>
<title>remedo-for-gynecologist</title>
<line class="st0" x1="15.5" y1="348.9" x2="435.5" y2="348.9"/>
<rect class="st1" width="450" height="401"/>
<rect x="26.1" y="91.1" class="st2" width="75.2" height="86.9"/>
<rect x="29" y="94.4" class="st3" width="69.5" height="80.3"/>
<path class="st4" d="M54.3,139.4v-0.1c0-0.1-0.2-7.4-0.5-9.9c-0.3-2.8-1.9-11.5-1.9-11.5c-0.1-0.4-0.3-0.8-0.7-1.1l-0.5-0.4l0,0
	c-0.5-0.4-3.8-1.4-4.8-1.9l0,0h-0.1l0,0h0V113l0.1-0.1c0.5-0.7,0.9-1.5,1.1-2.3l0,0c0.3,0.1,0.6-0.3,0.7-0.8s0-1-0.3-1
	c-0.1,0-0.1,0-0.2,0c0.1-0.3,0.1-0.5,0.1-0.8l0,0c0.1-0.4,0.1-0.8,0-1.2c0-0.4,0-0.8-0.1-1.2c-0.1-0.2-0.1-0.4-0.3-0.5
	c0,0,0,0,0-0.1c-1.2-1.5-3.1-2.1-4.9-1.6c-0.8,0.1-1.4,0.5-1.8,1.2c-0.4,0.2-0.6,0.5-0.6,0.9l0,0c-0.1,1-0.1,2.1,0.1,3.1
	c0,0-0.1,0-0.1,0c-0.3,0.1-0.4,0.5-0.3,1s0.4,0.9,0.7,0.8c0.2,0.7,0.5,1.4,0.9,2.1l0.4,0.3v1.4c-1.1,0.5-2.3,0.9-3.5,1.3
	c-0.4,0.1-0.8,0.3-1.2,0.5c-0.1,0-0.2,0.1-0.3,0.2l0,0l-0.6,0.5c-0.3,0.3-0.6,0.7-0.7,1.1c0,0-1.5,8.7-1.8,11.5
	c-0.3,2.5-0.5,9.8-0.5,9.9v0.1l-0.4,1.9l0.4,2.2l0.9,1.1c0.2,0.3,0.7,0.3,0.9,0.1c0,0,0,0,0.1-0.1l-0.3-0.5l0.3-0.7l-0.6-0.9
	l-0.1-1.4l0.7,0.5l0,1.4L35,143c0.2,0.1,0.5,0.1,0.6-0.1c0,0,0.1-0.1,0.1-0.2l0.3-1.5l-0.4-1.5L35,138c0.9-2.4,1.4-5,1.7-7.6
	c0.1-0.8,0.9-5.5,1.3-7.9c0,0.5,0,1,0,1.7v0.3c0,0.3,0,0.6,0,1c0,2,0,4.1-0.1,5.4c-0.1,1.9-0.3,3.9-0.4,5.4c0,0.1,0,0.1,0,0.2l0,0
	c-0.1,1.3-0.2,2.1-0.2,2.1l0,0c-0.1,0.6-0.1,0.9-0.1,0.9c0,0.3,0,0.6,0.1,0.9c0.1,1.4,0.1,2.8,0.2,4.2s0.1,3.4,0.3,4.8
	c0,0.2,0,0.4,0.1,0.6L38,152v0.9c0,0.1,0,0.2-0.1,0.3c-0.1,0.8-0.2,1.6-0.2,2.4c-0.1,1.9,0,7.4,0.1,9.3c0,0.5,0.1,1,0.1,1.5l0.2,1.4
	H39c-0.7,0.3-3.6,1.5-3.8,1.5s-0.4,0.6,0,0.6c1.4,0.1,2.9,0,4.3-0.3c0.6-0.2,2,0.4,2.5-0.2c0.3-0.5,0.4-1,0.4-1.5c0.1,0,0.2,0,0.2,0
	c0.2-0.4,0.2-0.8,0.2-1.2c0-0.5,0.1-1,0.1-1.5c0-1.1,0.1-5.6,0.1-6.7s0-2.1,0-3.1c0-0.5-0.1-1-0.1-1.5c0-0.3,0-0.6,0-0.8v-0.6
	l0.2-3.6c0.2-0.9,0.2-4.7,0.4-6.7h0.7c0.2,1.8,0.3,5.8,0.4,6.7l0.2,3.6v0.6c0,0.3,0,0.6,0,0.8c0,0.5-0.1,1-0.1,1.5
	c0,1-0.1,2.1,0,3.1s0.1,5.6,0.1,6.7c0,0.5,0,1,0.1,1.5c0,0.4,0,0.8,0.2,1.2c0.2,0.1,0.5,0.1,0.7,0.1l0.1,0.7c0,0,1.2,2.6,1.9,2.3
	s2.3-0.6,2.3-0.9c-0.3-0.7-0.7-1.4-1.2-2v-0.2h0.7l0.2-1.4c0.1-0.5,0.1-1,0.1-1.5c0.1-1.9,0.2-7.4,0.1-9.3c0-0.8-0.1-1.6-0.2-2.4
	c0-0.1,0-0.2-0.1-0.3V152l0.1-1.9c0-0.2,0.1-0.4,0.1-0.6c0.2-1.4,0.2-3.4,0.3-4.8s0.1-2.8,0.2-4.2c0-0.3,0-0.5,0.1-0.8
	c0,0-0.2-1.3-0.5-3.1l0,0l0,0c0-0.1,0-0.1,0-0.2c-0.1-1.5-0.3-3.5-0.4-5.5c-0.1-1.3-0.1-3.4-0.1-5.4v-2.9c0.4,2.5,1.2,7,1.3,7.8
	c0.3,2.6,0.9,5.1,1.8,7.6l-0.5,1.7l-0.3,1.6l0.3,1.5c0,0.2,0.3,0.4,0.5,0.3c0.1,0,0.1,0,0.2-0.1l0.2-0.1l-0.1-1.4l0.7-0.5l0,1.4
	l-0.6,0.9l0.3,0.7l-0.3,0.5c0.2,0.3,0.7,0.3,0.9,0.1c0,0,0,0,0.1-0.1l0.9-1.1l0.4-2.2L54.3,139.4z"/>
<rect x="60.5" y="105.4" class="st5" width="35.9" height="6.5"/>
<rect x="60.5" y="116.5" class="st4" width="35.9" height="6.5"/>
<rect x="60.5" y="128.7" class="st5" width="35.9" height="6.5"/>
<rect x="60.5" y="139.8" class="st4" width="22.8" height="6.5"/>
<polygon class="st2" points="95.8,169.8 60.6,169.8 60.6,164.9 95.8,164.9 95.8,164.8 60.6,164.8 60.6,160.2 95.8,160.2 95.8,160.1 
	60.6,160.1 60.6,155.5 95.8,155.5 95.8,155.4 60.6,155.4 60.6,151.5 95.8,151.5 95.8,151.4 60.6,151.4 60.6,150.7 60.5,150.7 
	60.5,169.9 95.8,169.9 "/>
<rect x="67.4" y="150.8" class="st2" width="0.1" height="19"/>
<rect x="74.3" y="150.8" class="st2" width="0.1" height="19"/>
<rect x="87.5" y="150.8" class="st2" width="0.1" height="19"/>
<rect x="80.9" y="150.8" class="st2" width="0.1" height="19"/>
<rect x="93.1" y="150.8" class="st2" width="0.1" height="19"/>
<path class="st2" d="M93.1,151.3c-0.2-0.1-0.4-0.1-0.6,0l-14.7,12l-7.8-2.5c-0.2,0-0.3,0-0.5,0.1c-6.2,5.6-8.3,7.6-9,8.3v0.5h0.5
	c0.7-0.7,5.6-5.2,9-8.3l7.7,2.5c0.2,0.1,0.3,0,0.5-0.1l14.9-12.1C93.3,151.6,93.3,151.5,93.1,151.3
	C93.2,151.3,93.1,151.3,93.1,151.3z"/>
<path class="st6" d="M84.6,336.1h245.7c3.3,0,5.9,2.7,5.9,5.9v0c0,3.3-2.7,5.9-5.9,5.9H84.6c-3.3,0-5.9-2.7-5.9-5.9v0
	C78.7,338.8,81.3,336.1,84.6,336.1z"/>
<path class="st2" d="M302.8,358l-0.1,0.7h-3.5C300.5,358.6,301.7,358.4,302.8,358z"/>
<path class="st2" d="M82.3,245l0.1,0.7l2.9,22.9l0.9,6.9l3.5,27.8l1.6,12.9l2.8,21.9c1.3,0.3,2.5,0.5,3.8,0.6h223.3l0.1-1.2
	l2.7-21.4l1.3-9.8l0.4-3.1v-0.4l3.5-27.4l0.9-6.9l2.9-22.9l0.1-0.7l0.6-4.8H142.1l1.2,4.8L82.3,245z"/>
<path class="st7" d="M78.5,274.2l4.4,24.7c0.4,1.9,1.9,3.4,3.8,3.9c0.7,0.2,1.5,0.4,2.3,0.4h238.2c0.8,0,1.5-0.1,2.2-0.4l0,0
	c1.9-0.5,3.3-2,3.8-3.9l0.8-4.4l3.6-20.4c0.3-2.1-0.9-4.1-2.8-4.9c-1-0.5-2.1-0.8-3.2-0.8H84.5c-1.1,0-2.2,0.3-3.2,0.8
	C79.3,270.1,78.2,272.1,78.5,274.2z"/>
<path class="st8" d="M77.1,242.5c0,1.8,1.4,3.2,3.2,3.2h255c1.8,0,3.2-1.4,3.2-3.2c0-1.8-1.4-3.2-3.2-3.2h-255
	c-0.8,0-1.7,0.3-2.3,0.9C77.4,240.8,77.1,241.6,77.1,242.5z"/>
<path class="st9" d="M82.4,245.6l2.9,22.9h-0.8c-1.1,0-2.2,0.3-3.2,0.8c-1.9,0.8-3,2.9-2.8,4.9l4.4,24.7c0.4,1.9,1.9,3.4,3.8,3.9
	c0.7,0.2,1.5,0.4,2.3,0.4h0.8l1.6,12.9l2.8,21.9c1.3,0.3,2.5,0.5,3.8,0.6h223.3l0.1-1.2l2.7-21.4l1.3-9.8l0.4-3.1h1.4
	c0.8,0,1.5-0.1,2.2-0.4H212c-21.4,0-40.3-13.9-46.7-34.3l0,0l-7.2-22.9l-1.7-5.5l-0.3-0.9H80.3c-1.8,0-3.2,1.4-3.2,3.2
	c0,0.1,0,0.1,0,0.2c0.2,1.7,1.6,3,3.3,2.9L82.4,245.6z"/>
<path class="st10" d="M247.9,236.2c0.9,0,1.7,0,2.6-0.2c0.4-0.1,0.7-0.2,1.1-0.3l0,0l0,0C250.3,235.9,249.1,236.1,247.9,236.2z"/>
<path class="st11" d="M99.9,329.4h-5.2c0-6.2,0.2-12.5,0.2-18.7c1.7,0,3.4,0,5.1-0.1C100.1,316.9,100,323.2,99.9,329.4z"/>
<path class="st12" d="M94.9,310.7c0,6.2-0.1,12.5-0.2,18.7h1.7c0-6.2,0.1-12.5,0.1-18.7L94.9,310.7z"/>
<path class="st7" d="M60.2,256.7L60.2,256.7c-5.7-0.1-6-2.7-7.6-8.8c-3-11.5-5.3-18.5-4.1-30.3c0.6-6.3,2.9-7,6.8-7.3l0,0
	c3.9-0.4,6.6,1.1,6.8,6.7c0.4,10.6,2.3,20.4,4.2,31.4C67.3,254.3,65.9,256.8,60.2,256.7z"/>
<path class="st7" d="M60.2,256.7L60.2,256.7c-5.7-0.1-6-2.7-7.6-8.8c-3-11.5-5.3-18.5-4.1-30.3c0.6-6.3,2.9-7,6.8-7.3l0,0
	c3.9-0.4,6.6,1.1,6.8,6.7c0.4,10.6,2.3,20.4,4.2,31.4C67.3,254.3,65.9,256.8,60.2,256.7z"/>
<path class="st7" d="M60.2,256.7L60.2,256.7c-5.7-0.1-6-2.7-7.6-8.8c-3-11.5-5.3-18.5-4.1-30.3c0.6-6.3,2.9-7,6.8-7.3l0,0
	c3.9-0.4,6.6,1.1,6.8,6.7c0.4,10.6,2.3,20.4,4.2,31.4C67.3,254.3,65.9,256.8,60.2,256.7z"/>
<path class="st7" d="M66.3,248.6c-2-11.4-3.8-20.4-4.2-31.6c-0.2-6-3-5.4-6.8-6.9c-0.3-0.1-0.7,0.3-0.9,0c3.3,2,5.7,1.3,5.8,6.9
	c0.3,11.5,2.3,20.6,4.3,32.2c1,5.6-0.4,6.7-5.3,7.7c0.3,0,0.5,0,1,0C65.6,256.2,67.4,254.7,66.3,248.6z"/>
<path class="st13" d="M47.5,240.7c0.2,0.5,0.4,1.1,0.6,1.7C47.9,241.8,47.7,241.3,47.5,240.7z"/>
<path class="st13" d="M52,267c-1.2,5.5-7.1,15-5.8,19.9c0.5,2,3.6,3.6,5.8,3.9h0.3c8.8,0.3,15.2-2.6,24.3-1.8
	c0.1-0.7,0.1-1.4,0.2-2.1c-9.7-1.1-15.2,2.1-24.5,1.9c-1.4,0-3.8-1.2-4.1-2.6c-0.7-3.9,4.7-14.2,5.8-19c0.9-3.6,0.9-10.2-0.1-12.5
	c-2.2-4.8-2.4-7.4-3.2-10.6c0.3,0.1,0.6,0.3,0.8,0.4c-2.8-9.5-5.1-14.1-3.6-24.4c-1,0.6-2,1.3-2.9,2c-0.6,6.3,0.2,12.6,2.3,18.6v0.1
	c0.2,0.6,0.4,1.1,0.6,1.7l0,0c1.4,4.4,1.3,7.1,3.8,12.8C52.8,257.2,52.7,263.7,52,267z"/>
<path class="st13" d="M47.5,240.6C47.5,240.6,47.5,240.7,47.5,240.6L47.5,240.6z"/>
<path class="st13" d="M113.9,294.4c-11.9-1.3-23.4-1.3-35.4-1.6c-1.8,0-3.4-1.2-4.1-2.9l-1.1-2.8c15.1,2,30.7,0.5,46.3,2.7
	c-0.5,0.8-1,1.6-1.4,2.4C117.4,293.8,115.7,294.6,113.9,294.4z"/>
<path class="st13" d="M99.1,310.8h-3.2c-1.9,0-3.5-1.5-3.6-3.5c0,0,0,0,0,0c-0.1-5.7-0.4-11.4-0.2-17.1c3.4,0,6.7,0.1,10.1,0.3
	c-0.1,5.5,0.2,11.1,0.4,16.6C102.7,309,101.2,310.7,99.1,310.8C99.2,310.8,99.1,310.8,99.1,310.8z"/>
<path class="st14" d="M113.9,294.4c-11.9-1.3-23.4-1.3-35.4-1.6c-1.8,0-3.4-1.2-4.1-2.9l-1.1-2.8c15.1,2,30.7,0.5,46.3,2.7
	c-0.5,0.8-1,1.6-1.4,2.4C117.4,293.8,115.7,294.6,113.9,294.4z"/>
<path class="st13" d="M101.1,337.6c-2.5,0-5.1,0-7.6,0c0-2,0-4.5,0-6.4c0-0.8,0-1.6,0-2.3c0-1.6,1.4-3,3-3h1.7c1.7,0,3,1.3,3,3
	C101.1,331.8,101.1,334.7,101.1,337.6z"/>
<path class="st13" d="M65.6,345.3l28-14.2c0,2.2,0,4.3,0,6.5l-20.1,7.7v1.4h-7.9V345.3z"/>
<path class="st13" d="M129.1,345.4v1.4h-7.9c0-0.5,0-1,0-1.4l-20.1-7.8c0-2.2,0-4.3,0-6.5C110.4,335.9,119.8,340.7,129.1,345.4z"/>
<path class="st13" d="M101.1,346.8c0,0.4,0,0.7,0,1.1h-8.2v-1.1h1.9c0-5.2,0-10.4,0-15.7h5.2c-0.2,5.2-0.4,10.4-0.5,15.6
	L101.1,346.8z"/>
<path class="st15" d="M99.9,331.2c-0.2,5.2-0.4,10.4-0.5,15.6h-2c-0.6-5.2-1.2-10.4-1.7-15.7L99.9,331.2z"/>
<path class="st15" d="M129.1,345.4L129.1,345.4c-9.3-3.6-18.7-7.3-28-11v-3.3C110.4,335.9,119.8,340.7,129.1,345.4z"/>
<path class="st7" d="M119.7,289.8c-15.8-2.1-32.3-0.9-47.9-2.9c-2.9-0.2-5.1-2.8-4.9-5.7c0-0.1,0-0.2,0-0.3l0,0
	c0.3-2.9,2.2-5,5.4-4.3c14.8,3,33.1,1.5,48.6,3.5c3.4,0.5,4.6,2.8,4.3,5.4l0,0C124.8,288.2,123.2,290.3,119.7,289.8z"/>
<path class="st16" d="M120.9,280.2c-15.6-2.1-33.7-0.5-48.6-3.6c-1.7-0.4-2.4,0.2-3.8,1c0,0,0.1,0,0.1,0c16.3,2,32.6,1.4,48.7,3.7
	c3.5,0.5,4,2.8,4.2,5.5c0.1,1.3-1,2.2-1.6,3.1c2.5,0,5.2-1.5,5.2-4.3S124.4,280.6,120.9,280.2z"/>
<path class="st10" d="M130.7,343.8C130.9,343.6,130.8,343.7,130.7,343.8z"/>
<path class="st10" d="M114.1,340.2c4.4,4.4,8.1,7,14.5,6.6c2.4-0.2,2.7-1.3,2.1-2.9c-0.2-0.7-0.6-1.3-1.3-1.5
	c-0.5-0.2-1.2-0.3-2-0.5c-2.3-0.8-3.6-2.5-4.7-4.9c-0.9-2-2.1-4.6-1.4-7c0.2-0.8,0.4-1.5,0.6-2.2c0.3-1,0.6-2,0.9-3
	c0.2-0.6,0.4-1.2,0.6-1.8l-5.1-2.2c-0.6,0.7-1.1,1.5-1.6,2.3c-0.7,1.1-1.5,2.2-2.3,3.2c-0.9,1.2-1.7,2.6-2.2,4
	C110.7,333.9,110.3,336.3,114.1,340.2z"/>
<path class="st10" d="M143.5,327l0.6,3.6l1,5.6c0.5,4.6,4.2,7.7,8.9,8.2l18.6,2.2c1.2,0.2,2.4-0.7,2.5-1.9c0-0.1,0-0.2,0-0.3
	c0-0.3-0.1-0.6-0.2-0.9c-0.2-0.4-0.4-0.7-0.6-1c-1-1.1-2.2-1.9-3.6-2.3l-10.9-4.4c-2.3-0.9-4.2-2.5-5.6-4.6l-2.4-7.5L143.5,327z"/>
<path class="st17" d="M142.2,291c-2.6,6-12.6,28.7-19.2,37.7c-0.7,1-2.1,1.3-3.2,0.7l-4.4-2.3c-1.1-0.6-1.6-1.9-1.2-3.1
	c2.7-7,11.2-30.3,10.3-48.5c-0.1-1.4,1-2.5,2.3-2.6c0.8,0,1.5,0.3,2,0.8l12.8,14.5C142.5,289.1,142.6,290.2,142.2,291z"/>
<path class="st18" d="M114.5,326.1c0.2,0.5,0.6,0.8,1.1,1.1l4.4,2.3l0.2,0.1c1.1,0.5,2.3,0.1,3-0.8c6.6-9,16.6-31.8,19.2-37.7
	c0.4-0.9,0.2-1.9-0.4-2.6L129,273.9c-0.9-1-2.5-1.1-3.5-0.2c-0.6,0.5-0.9,1.2-0.8,2c0.9,18.2-7.6,41.5-10.3,48.5
	C114.1,324.7,114.1,325.5,114.5,326.1z"/>
<path class="st10" d="M111.8,230.8c0.2-0.1,0.4-0.2,0.5-0.3c3.5-2.8,5.8-6.8,6.2-11.3c2.7,1.8,5.2,3.9,7.6,6.1l5.6,5l7.8,6.9
	c2.8,2.8,5.9,4.9,8.9,7.4c2.8,2.4,5.2,5.2,7.2,8.4c1.1,1.7,2.4,3.4,3.5,5c0.4,0.5,1,1.3,0.4,1.9c-0.4,0.3-1,0.5-1.5,0.5
	c-0.8,0-1.5-0.3-2-0.8l-3.1-3.3l-3.2-2.6c-0.2-0.1-0.4-0.1-0.5,0.1c-0.1,0.1-0.1,0.3-0.1,0.4l1.1,2.6c0.2,0.6,0.2,1.3,0,1.9
	c-0.2,0.5-0.8,0.7-1.3,0.4c-0.1-0.1-0.2-0.2-0.3-0.3l-5.3-9.5l-20.9-14.1c-1.7-1.2-3.6-2.2-5.6-2.8l-4.2-1.2L111.8,230.8z"/>
<path class="st19" d="M92.7,206.2c9.1-0.8,18.1,2.8,24.1,9.7l0.4,0.5c0.3,0.4,0.6,0.9,0.7,1.5c0.2,1.1,0.3,2.3,0.3,3.4
	c-0.3,4.5-2.4,8.6-5.8,11.5c-0.1,0.1-0.3,0.3-0.5,0.4c-0.8,0.5-1.8,0.5-2.7,0.1c-7-3.6-21.1-3.5-27-3.2c-1.7,0.1-2.7,0.1-2.7,0.1
	S76.2,207.6,92.7,206.2z"/>
<path class="st20" d="M103.9,201.3c8,4.5,13.3,12.5,14.3,21.6c-1.2-1-2.2-2.2-3.3-3.3c-4.4-4.1-10.3-6.1-16.3-5.4
	c-1.6,0.2-3.3,0.6-4.9,0.9c-4,0.7-8.1,0.5-12-0.4c-1.4-0.9-2.3-1.4-2.3-1.4S89.5,193.1,103.9,201.3z"/>
<path class="st13" d="M47.3,239.8c3.1,5,9.3,5.5,14.6,4.6l0,0c19.9-3.4,17-33.5,17-33.5l8.6-23.5c-0.6-0.4-1.2-0.9-1.8-1.3
	c-1.4-0.9-2.6-2.5-4.3-2.9h-0.2c-0.4-0.1-0.8-0.1-1.1-0.3c-1-0.4-1.8-1.1-2.2-2.1l0,0c-0.1-0.4-0.1-0.8-0.1-1.1
	c0-0.9,0.6-1.7,1.3-2.2c0.2-0.1,0.4-0.1,0.6-0.1h0.4l0,0c0,0,0,0,0.1,0l1.1,1.2c0.2,0.3,0.7,0.3,0.9,0.1c0.1-0.1,0.2-0.2,0.2-0.3
	l0.6-2.2c0.5-1.8,2.1-2.9,3.9-2.8c3.3,0.3,8.1,1.2,11.7-0.7l1.9-1.9l0.3-0.3l0.7-0.7c4.3-7.4-4-12.8-4-12.8s-8.6-5.9-17.6-2.6
	c-6,2.3-10.1,7.9-10.4,14.3c-0.3,4,0.2,8.1,1.6,11.9l0.1,0.3v0.1c0.1,0.2,0.2,0.5,0.2,0.7l0,0c1.2,4.8-2.4,8.3-6.6,10.4
	c-0.7,0.3-1.4,0.7-2.2,0.9c-1.4,0.4-2.8,0.9-4.2,1.6c-3,1.7-3.8,5.2-3.5,8.4c0.3,2.1,1.1,4.1,2.2,5.9v0.1c0.3,0.5,0.5,0.9,0.7,1.4
	c0.3,0.7,0.6,1.4,0.8,2.1c0.1,0.2,0.1,0.5,0.2,0.7c0.9,4.6-2.8,7.2-6.2,9.4c-0.9,0.6-1.8,1.3-2.6,2l0,0l-0.2,0.2
	C45.6,228.7,43.7,234,47.3,239.8z"/>
<path class="st10" d="M80.5,206.4c3.8-0.9,13.4-6.6,14.6-7.4l0.1-0.1c-1-1.3-1.9-2.7-2.7-4.2c-0.2-0.4-0.5-0.9-0.7-1.4
	c-1-1.8-1.5-3.9-1.6-5.9l-6.1-4.6l-1-0.8l0,0l-1.3-1c0.3,0.4,0.5,0.8,0.8,1.2c0,0.1,0.1,0.1,0.1,0.2l0.1,0.1
	c0.2,0.3,0.3,0.6,0.4,0.9c0.1,0.3,0.2,0.6,0.4,0.9c0,0.1,0,0.2,0.1,0.2c0,0.1,0.1,0.3,0.1,0.5c0.1,0.5,0.2,1,0.2,1.5
	c0.1,1,0,2-0.1,3.1c0,0.3-0.1,0.6-0.1,0.8c-0.8,5.1-2.4,10-4.7,14.6C78.5,206.5,79.2,206.8,80.5,206.4z"/>
<path class="st10" d="M77.7,180.8L77.7,180.8c0.4,1,1.2,1.8,2.2,2.1c0.4,0.1,0.7,0.2,1.1,0.3h0.2c0.9,0.2,1.7,0.7,2.4,1.3
	c0.6,0.6,1.2,1.1,1.9,1.6c0.6,0.4,1.2,0.9,1.8,1.3c0.9,0.7,1.9,1.3,3,1.8c0.5,0.2,1.1,0.4,1.6,0.6c2.2,0.5,4.5-0.1,6.2-1.6
	c2.1-1.7,3.8-3.8,5.1-6.2c0.4-0.7,1-1.3,1.7-1.6c0.3-0.1,0.7-0.3,1-0.5c0.4-0.2,0.5-0.6,0.3-1c0-0.1-0.1-0.2-0.2-0.2
	c-2-1.8-3.7-3.9-4.9-6.3c-0.2-0.4-0.5-0.9-0.7-1.4c-0.6,0.6-1.2,1.2-2,1.6c-3.5,1.9-8.4,1-11.7,0.7c-1.8-0.2-3.5,1-3.9,2.8l-0.5,2.1
	v0.1c-0.1,0.4-0.5,0.6-0.8,0.5c-0.1,0-0.2-0.1-0.3-0.2l-1.1-1.2c-0.1,0,0,0-0.1,0s0,0,0,0h-0.4c-0.2,0-0.4,0.1-0.6,0.1
	c-0.8,0.4-1.3,1.3-1.3,2.2C77.6,179.9,77.6,180.4,77.7,180.8z"/>
<path class="st10" d="M80.1,177.3l1.1,1.2c0.2,0.3,0.7,0.3,0.9,0.1c0.1-0.1,0.2-0.2,0.2-0.3v-0.1l0.5-2.1c0.5-1.8,2.1-2.9,3.9-2.8
	c3.3,0.3,8.1,1.2,11.7-0.7c0.8-0.4,1.4-1,2-1.6c0-0.1-0.1-0.2-0.1-0.3s-0.1-0.3-0.2-0.4l0,0c-0.7-1.6-1.1-4.1-2-5.7s-2.6-2.7-5.9-1
	c-1.6,0.9-3.2,2.1-4.5,3.4c-0.7,0.6-1.4,1.3-2,2.1c-2,2.1-3.7,4.5-5,7.1c-0.2,0.4-0.3,0.7-0.4,1.1C80.2,177.3,80.2,177.3,80.1,177.3
	z"/>
<path class="st13" d="M78.9,175.9l1.2,1.4l1.1,1.2c0.2,0.3,0.7,0.3,0.9,0.1c0.1-0.1,0.2-0.2,0.2-0.3v-0.1l0.5-2.1
	c0.5-1.8,2.1-2.9,3.9-2.8c3.3,0.3,8.1,1.2,11.7-0.7c0.8-0.4,1.4-1,2-1.6c0.3-0.4,0.6-0.8,0.9-1.3c4.3-7.4-4-12.8-4-12.8
	c-4.5,0-9.8,6-13.5,11.3C82,170.7,80.4,173.3,78.9,175.9z"/>
<path class="st17" d="M78.5,273.9c13,8.2,32,5.4,46.2,8.6c4.2,1,6.8,8,8.7,14.5c1,3.3,1.8,6.5,2.6,8.5c2.3,6.3,4.6,16.4,6.5,24.5
	c0.3,1.2,1.1,2.2,2.1,2.8c1,0.5,2.1,0.7,3.2,0.4c1.3-0.4,2.7-0.8,3.9-1.3l0.4-0.2c1.6-0.7,2.5-2.4,2.4-4.1
	c-0.8-13.1-3.9-33.5-8.5-47.7c-1.2-3.9-2.8-7.6-4.7-11.1c-7.7-12.7-17.9-12-30.3-13.9c-11.3-1.7-24.3-5.4-36.7-8.2
	c-2.2-0.5-4.3,0.8-5,2.9c-0.8,2.2-1.2,4.6-1.4,6.9C67.3,262.9,69.9,268.5,78.5,273.9z"/>
<path class="st14" d="M67.8,256.6c2.3,4.6,5.6,8.3,10.8,9.9c6.4,1.9,13.3,0.7,19.7-1.1s12.8-4,19.5-4.2s13.9,2.2,17.4,7.8
	c1.1,1.7,1.8,3.6,2.9,5.3c2,2.7,4.7,4.6,7.9,5.6c-1.2-3.9-2.8-7.6-4.7-11.1c-6.3-10.4-14.3-11.8-23.7-13c-0.1,0.5-0.2,1-0.3,1.6
	c-0.1,0.6-0.7,1.1-1.3,1c-2.8-0.3-10.6-0.7-20.5,3.9c-10.4,4.7-22.6-0.8-27.2-8.7C68,254.6,67.9,255.6,67.8,256.6z"/>
<path class="st19" d="M65.8,243.3c0.2,1.8,0.4,3.5,0.6,5.3c0.3,1.8,0.9,3.5,1.8,5c4,6.9,13.9,12,23.3,10c1.3-0.3,2.7-0.7,3.9-1.3
	c2.1-0.9,4.2-1.7,6.3-2.4c2.5-0.7,5-1.2,7.6-1.5h0.1c0.6-0.1,1.2-0.1,1.7-0.1h0.6c1.4,0,2.7,0,4.1,0.2c0.6,0.1,1.2-0.4,1.3-1
	c0.1-0.5,0.2-1,0.3-1.6c0.1-0.8,0-0.1,0-0.1c1.2-8.5-1.3-17.4-4.2-25.3c-3.2-8.3-7.2-16.2-12-23.7c-1.2-1.9-2.5-3.8-3.9-5.5
	c-1.1-1.4-2.3-2.9-3.5-4.3c0.8,1.5,0.7,3.1-1.1,3.5c-2.6,0.5-5.3-0.4-7.3-2.3c-0.8-0.7-1.4-2.5-2.5-3c-0.3-0.2-0.7-0.2-1-0.1
	c-0.5,0.1-1,0.3-1.5,0.6c-0.2,0.1-0.4,0.3-0.6,0.4c-1.3,1.3-2.4,2.7-3.2,4.3c-1.8,2.6-3.5,5.3-5.1,8.1c-1.5,2.8-2.7,5.7-3.6,8.7
	c-0.1,1-0.4,1.9-0.8,2.8C65.4,227.6,64.9,235.5,65.8,243.3z"/>
<path class="st19" d="M67.2,220c0.4-0.9,0.7-1.8,0.8-2.8C67.7,218.1,67.5,219,67.2,220z"/>
<path class="st10" d="M106.5,250.3l11.3,5.5c0.6,0.3,1.3,0.6,2,0.8l15.1,5l15.2,5c0.3,0.1,0.5,0.2,0.8,0.4l2.6,2.2
	c1.4,1.1,2.3,2.8,2.5,4.5l0.4,3.4c0.2,1.5,1.5,2.7,3,2.6c0.6,0,1.1-0.4,1.2-1l0.7-5.8c0.2-1.3-0.2-2.6-0.9-3.7l-4.2-5.9
	c-0.3-0.5-0.8-0.9-1.3-1.2l-22.7-12.3c-0.8-0.4-1.5-1-2.2-1.6l-10.3-9.1l-2.1-1.9l-2.1-1.8l-1.2,1.9L106.5,250.3z"/>
<path class="st19" d="M79.8,221.3c0,0.2,0,0.5,0.1,0.7c1.7,6.4,5.6,12,11,15.8c8.5,6,14.5,11.4,15.6,13.6c1,1.9,3.1,1.8,3.8,0.7
	c0.1-0.2,0.2-0.5,0.2-0.7c0-1.7,1.1-2.8,3.1-5.1c0.4-0.5,1.1-1.1,1.8-1.8c1.6-1.5,3.1-3.3,4.3-5.1c0.8-1.1,1.1-2.5,0.8-3.8
	c0,0-19.9-24.7-30.7-23.8S79.8,219.9,79.8,221.3z"/>
<path class="st21" d="M144.6,332.8l0.6,3.5c0.5,4.6,4.2,7.7,8.9,8.2l18.6,2.2c1.2,0.2,2.4-0.7,2.5-1.9c0-0.1,0-0.2,0-0.3
	c0-0.3-0.1-0.6-0.2-0.9c-0.2-0.4-0.4-0.7-0.6-1c-1.3-0.1-2.5,0-3.8,0.3c-4.9,0.8-9.9,0.6-14.7-0.9c-1.7-0.5-3.2-1.4-4.4-2.6
	c-1.2-1.3-1.7-3.1-1.3-4.8c0.5-1,1.1-2,1.8-2.9l-0.4,0.2c-1.2,0.5-2.6,0.9-3.9,1.3C146.7,333.4,145.5,333.3,144.6,332.8L144.6,332.8
	z"/>
<path class="st22" d="M68,216.9v0.3c0.9-3,2.1-5.9,3.6-8.7c1.6-2.8,3.2-5.5,5.1-8.1c1.4-2.1,2.7-4.7,5.4-5.3c0.3-0.1,0.7,0,1,0.1
	c0.4-1.5,0.8-3,1-4.6c0-0.3,0.1-0.6,0.1-0.8c0.2-1.5,0.2-3.1-0.1-4.6c0-0.2-0.1-0.3-0.1-0.5c0-0.1-0.1-0.2-0.1-0.2
	c-0.7-0.6-1.5-1.1-2.4-1.3h-0.2c-0.4-0.1-0.8-0.1-1.1-0.3c-1-0.4-1.8-1.1-2.2-2.1l0,0c-0.1-0.4-0.1-0.8-0.1-1.1
	c0-0.9,0.6-1.7,1.3-2.2c0.2-0.1,0.4-0.1,0.6-0.1h0.4l0,0c0,0,0,0,0.1,0l1.1,1.2c0.2,0.3,0.7,0.3,0.9,0.1c0.1-0.1,0.2-0.2,0.2-0.3
	l0.6-2.2c0.5-1.8,2.1-2.9,3.9-2.8c3.3,0.3,8.1,1.2,11.7-0.7l1.8-1.9l0.3-0.3c-0.2-0.1-0.3-0.1-0.5-0.2c-1.3-0.4-3,0.2-4.4,0.4
	c-2.8,0.3-5.7,0-8.4-0.9c-0.6-0.2-1.2-0.4-1.7-0.7s-1.2-0.5-1.8-0.8c-1.1-0.5-2.1-0.9-3.3-1.3c-2.3-0.7-5.1-0.6-6.9,1
	c-2.6,2.3-2.2,6.5-1,9.8c1.3,3.5,4.9,6.9,4.4,10.9s-5.7,6.6-7.8,9.8c-3.2,4.6-3.3,7.5-2.2,13C67.6,213.2,67.9,215,68,216.9z"/>
<path class="st22" d="M60.7,242.7c0.3,0.6,0.7,1.2,1.2,1.7l0,0c1.3-0.2,2.7-0.6,3.9-1.1c-0.9-7.8-0.4-15.7,1.4-23.3
	c-0.9,1.8-2,3.6-3.1,5.3c-2.5,4.2-3.9,9-3.9,13.9C60.1,240.3,60.3,241.6,60.7,242.7z"/>
<path class="st22" d="M49.9,224.7c0.5-0.2,0.8-0.5,1.3-0.6c0.4-0.1,0.8-0.1,1.1-0.1c1.6,0.2,3.1,0.3,4.7,0.3c1.6,0,3.1-0.7,4-2
	c0.6-1.1,0.8-2.5,0.5-3.7c-0.2-1.3-0.6-2.6-1.1-3.9c-0.5-1.1-1-2.2-1.6-3.3c-0.4-0.7-0.9-2.1-1.6-2.6c0.3,0.5,0.5,0.9,0.7,1.4
	c0.3,0.7,0.6,1.4,0.8,2.1c0.1,0.2,0.1,0.5,0.2,0.7c0.9,4.6-2.8,7.2-6.2,9.4c-0.9,0.6-1.8,1.3-2.6,2l0,0L49.9,224.7z"/>
<path class="st21" d="M82.3,178.2c0.2-0.1,0.3-0.2,0.4-0.3c0.1-0.2,0.2-0.4,0.2-0.7c0.3-0.6,0.8-1,1.4-1.1c0.6-0.1,1.3,0,1.9,0.1
	c0.9,0.2,1.8,0.4,2.8,0.5c1.4,0.1,2.8,0.1,4.2-0.2c2.1-0.3,4.1-1,5.8-2.1c0.8-0.6,1.6-1.3,2.2-2.1c-0.2-0.4-0.5-0.9-0.7-1.4
	c-0.6,0.6-1.2,1.2-2,1.6c-3.5,1.9-8.4,1-11.7,0.7c-1.8-0.2-3.5,1-3.9,2.8L82.3,178.2z"/>
<path class="st21" d="M83.7,184.6c0,0.1,0,0.2,0.1,0.2c0,0.1,0.1,0.3,0.1,0.5c0.1,0.5,0.2,1,0.2,1.5c0.3,0.3,0.6,0.5,0.9,0.7
	c0.6,0.4,1.2,0.6,1.8,0.9c1.4,0.9,2.2,2.4,3.3,3.7c0.5,0.6,1.1,1,1.8,1.3c-0.7-1.3-1.1-2.7-1.4-4.2c-1.1-0.5-2.1-1.1-3-1.8
	c-0.6-0.4-1.2-0.9-1.8-1.3C85,185.6,84.3,185.1,83.7,184.6z"/>
<path class="st21" d="M110.3,252.1l7.5,3.7c0.6,0.3,1.3,0.6,2,0.8l0.7,0.2l14.5,4.8c-1.8-1.6-3.8-2.9-6-3.8
	c-1.1-0.4-2.2-0.9-3.2-1.5c-1-0.6-1.9-1.4-3-2c-0.6-0.4-1.3-0.7-2-1c-1.6-0.7-3.1-1.4-3.9-2.9c-0.7-1.4-0.7-3.1,0-4.5
	c-0.4-0.5-0.9-0.9-1.4-1.4l-0.1,0.1l-0.1,0.1l-0.1,0.1l-0.1,0.1l-0.1,0.1l-0.1,0.1c-0.4,0.4-0.7,0.8-1,1.1c-2,2.3-3.1,3.4-3.1,5.1
	C110.5,251.7,110.4,251.9,110.3,252.1z"/>
<path class="st21" d="M119.6,239.4c-1.2,1.9-2.7,3.6-4.3,5.1c0.5,0.4,0.9,0.9,1.4,1.4c0.1-0.3,0.2-0.5,0.3-0.7
	c0.6-1.2,1.5-2.3,2.1-3.6C119.5,240.9,119.6,240.2,119.6,239.4L119.6,239.4z"/>
<path class="st2" d="M79.9,196.2c0.2,0.4,0.4,0.7,0.7,1.1c1.2,1.8,2.9,3.3,4.9,4.2c0.6,0.4,1.3,0.8,2,1.1c1.3,0.4,2.7,0.5,4,0.3
	c1.7,0,3.4-0.4,5-1.1l0.1-0.1c0.6-0.4,0.8-1.3,0.4-1.9c-0.8-1.3-1.5-2.6-3.1-2.9c0.8,1.5,0.7,3.1-1.1,3.5c-2.6,0.5-5.3-0.3-7.3-2.2
	c-0.8-0.7-1.4-2.5-2.5-3c-0.3-0.2-0.7-0.2-1-0.1C81.2,195.3,80.5,195.7,79.9,196.2z"/>
<path class="st20" d="M79.8,225.1c0.7,3.7,2.2,7.2,4.4,10.3c1.3,1.8,2.7,3.4,4.2,4.9c0.3,0.3,0.5,0.7,0.8,1c1.2,1.3,2.5,2.4,3.7,3.6
	c3.1,3.1,5.3,6.9,6.6,11c0.4,1.5,0.9,3.2,2.2,3.9c2.5-0.7,5-1.2,7.6-1.5h0.1c0.6-0.1,1.2-0.1,1.7-0.1h0.6c1.4,0,2.7,0,4.1,0.2
	c0.6,0.1,1.2-0.4,1.3-1c0.1-0.5,0.2-1,0.3-1.6c0.1-0.8,0-0.1,0-0.1l-7.3-3.6c-0.7,1.1-2.8,1.2-3.8-0.7c-1.1-2.3-7.1-7.7-15.6-13.6
	c-5.4-3.8-9.3-9.4-11-15.8C79.3,222.8,79.7,223.9,79.8,225.1z"/>
<path class="st18" d="M133.4,297c1,3.3,1.8,6.5,2.6,8.5c2.3,6.3,4.6,16.4,6.5,24.5c0.5,2.1,2.6,3.6,4.7,3.3
	c-0.3-4.3-1.1-8.6-2.5-12.7C141.9,312.3,137.8,304.5,133.4,297z"/>
<path class="st21" d="M130.7,343.8C130.9,343.6,130.8,343.7,130.7,343.8z"/>
<path class="st21" d="M114.1,340.2c4.4,4.4,8.1,7,14.5,6.6c2.4-0.2,2.7-1.3,2.1-2.9c-0.2-0.7-0.6-1.3-1.3-1.5
	c-0.2,0-0.3-0.1-0.5-0.1c-1.4-0.1-2.8,0.1-4.2-0.1c-1.4-0.2-2.7-0.8-3.8-1.6c-1.8-1.1-3.2-2.7-3.9-4.7c-0.7-2,0-4.2,1.7-5.5
	c0.5-0.3,1-0.5,1.5-0.8l-0.2-0.1l-4.4-2.3c-0.5-0.2-0.8-0.6-1.1-1.1c0,0,0,0.1-0.1,0.1c-0.9,1.2-1.7,2.6-2.2,4
	C110.7,333.9,110.3,336.3,114.1,340.2z"/>
<rect x="224.3" y="88.1" class="st23" width="169.8" height="105.1"/>
<rect x="230.2" y="93.5" class="st3" width="157.9" height="94.3"/>
<path class="st2" d="M269.8,111.6c2.3-1.3,0.7,1.3,0.7,1.3s-1.6,2-1.6,3.4s2.1,0.9,2.4,0.6s0.4,1.8,0.4,1.8s-1.7-0.4-2.7-0.6
	s-1.5,8.5-1.8,9.5s-1.6,0-1.6,0S267.6,112.9,269.8,111.6z"/>
<path class="st2" d="M268.3,105.8c0.7-2,5.7-3.6,8.6,0.5s3.3,12.1,0.4,15.4s-5.4,3.5-7.3,2.2c-2.7-1.7,0.6-4.5,0.4-9.3
	S267.1,109.5,268.3,105.8z"/>
<path class="st2" d="M259.2,116.9c0.3,0.3,2.4,0.8,2.4-0.6s-1.6-3.4-1.6-3.4s-1.6-2.7,0.7-1.3s4.4,16,4.4,16s-1.3,1-1.6,0
	s-0.8-9.8-1.8-9.5s-2.7,0.6-2.7,0.6S258.9,116.6,259.2,116.9z"/>
<path class="st2" d="M262.2,105.8c1.3,3.7-1.7,4-2,8.8s3,7.6,0.4,9.3c-2,1.3-4.4,1.2-7.3-2.2c-2.9-3.4-2.5-11.4,0.4-15.4
	S261.5,103.8,262.2,105.8z"/>
<path class="st2" d="M374.3,107.7c0,0-2.6-2.6-8.9-2.8s-9.4,4.4-10.1,4.8s-1.6,6.9-1.6,6.9s0.6,3.3-1.6,4.6l-1.8,1.1
	c-0.3,0.2-0.6,0.4-0.8,0.7c-0.4,0.6-0.5,1.5,1.2,2.1c0.9,0.3,0,3.4,0,3.4c-0.1,1.1,0,2.1,0.1,3.2c0.3,2.2,3,2.4,6.4,2.2
	s4.8,1.5,4.6,4.2c-0.3,2.2-0.9,4.3-1.8,6.4l13.3-0.3c0,0-1.1-6.4,0.9-11.2s4.6-4,4.9-12.7S374.3,107.7,374.3,107.7z"/>
<rect x="288.8" y="107" class="st2" width="51.7" height="2.1"/>
<rect x="288.8" y="112.7" class="st2" width="51.7" height="2.1"/>
<rect x="308.7" y="118.8" class="st2" width="31.8" height="2.1"/>
<rect x="288.3" y="138.7" class="st2" width="51.7" height="2.1"/>
<rect x="288.3" y="144.5" class="st2" width="51.7" height="2.1"/>
<rect x="308.2" y="150.5" class="st2" width="31.8" height="2.1"/>
<rect x="158.4" y="203.6" class="st6" width="12.6" height="3.8"/>
<path class="st6" d="M165.6,202.6h3.4c1.1,0,2.1,0.9,2.1,2.1v1.8c0,1.1-0.9,2.1-2.1,2.1h-3.4c-1.1,0-2.1-0.9-2.1-2.1v-1.8
	C163.5,203.5,164.4,202.6,165.6,202.6z"/>
<path class="st6" d="M155,238.8l-2.2-0.3c-1-0.1-1.7-1-1.6-2.1l3.6-35.4c0.1-1,1-1.8,2-1.7c0,0,0,0,0,0l2.2,0.3c1,0.1,1.7,1,1.6,2
	l-3.6,35.4C157,238.2,156.1,238.9,155,238.8C155.1,238.9,155.1,238.9,155,238.8z"/>
<path class="st13" d="M158.7,202.6c0.1-0.5-0.3-1-0.9-1.1c0,0,0,0,0,0l0,0c-0.5-0.1-1.1,0.3-1.1,0.8c0,0,0,0.1,0,0.1l-3.4,33.3
	c-0.1,0.5,0.3,1.1,0.9,1.1c0,0,0,0,0,0l0,0c0.5,0.1,1.1-0.3,1.1-0.8c0,0,0-0.1,0-0.1"/>
<path class="st6" d="M149.6,238h22.6c0.4,0,0.8,0.3,0.8,0.8v0c0,0.4-0.3,0.8-0.8,0.8h-22.6c-0.4,0-0.8-0.3-0.8-0.8v0
	C148.8,238.4,149.2,238,149.6,238z"/>
<path class="st6" d="M155.8,180.6l18.3,42c0.3,0.7,0.8,1.3,1.4,1.7l2.4,1.5l-22.2-50.7l-0.3,2.7
	C155.3,178.7,155.4,179.7,155.8,180.6z"/>
<path class="st13" d="M153.1,170.6l25.2,58.1c0.3,0.6,1,0.9,1.6,0.7c0,0,0,0,0,0l1.8-0.9l-26.5-61l-1.3,0.6
	C153.1,168.5,152.7,169.6,153.1,170.6z"/>
<path class="st2" d="M157.3,166.5l-1.9,0.9l26.5,61l2.1-1c0.5-0.2,0.7-0.8,0.5-1.4l-25.6-59C158.5,166.4,157.9,166.2,157.3,166.5
	C157.3,166.5,157.3,166.5,157.3,166.5z"/>
<linearGradient id="SVGID_1_" gradientUnits="userSpaceOnUse" x1="-8125.0742" y1="2646.4214" x2="-8173.5645" y2="2639.6414" gradientTransform="matrix(0.964 -0.2659 -0.2659 -0.964 8752.2559 568.8782)">
	<stop  offset="4.000000e-02" style="stop-color:#F5F5F5;stop-opacity:0"/>
	<stop  offset="1" style="stop-color:#FFFFFF"/>
</linearGradient>
<path class="st24" d="M156.7,166.7l14.9-20.4c6.1-8.3,17.8-10.2,26.1-4.1c2.5,1.8,4.5,4.2,5.8,7l26.6,55.6
	c4.4,9.3,0.5,20.4-8.8,24.9c-3.3,1.6-7.1,2.2-10.7,1.6l-25.8-3.7"/>
<path class="st2" d="M194.7,238.2c0.4,0.6,2.4,1,5.5,1.4H281l-0.4-2.6l-0.3-1.9c3-3,4.9-7,5.4-11.2c0.1-0.7,0.1-1.4,0.1-2.1
	c-0.6-8.5-2.6-20.2-4.3-28.8c-1.4-7.1-6.3-13-12.9-15.7l-8-3.3l-2.8-1.2c-3.2-1.3-6.5-2.3-9.9-3c-13.6-2.8-22.8,1.1-28,4.8
	c-2,1.3-3.7,2.9-5.2,4.8l-4.6,4l-1.6,1.4c-4.9,4.2-8.1,10-9.4,16.3C196.5,214.1,192.8,235.4,194.7,238.2z"/>
<path class="st25" d="M205.2,233.3c0,0.9,0.6,1.7,1.5,2c0.8,0.3,1.7,0.4,2.6,0.4c6.2,0.1,12.5,1.1,17.9,4h47.5
	c1.4-0.2,2.8-0.7,4.1-1.4c1.1-0.6,1.8-1.9,1.6-3.1c1.5-1.5,2.7-3.2,3.6-5.1c0.9-1.9,1.5-4,1.8-6.1c-0.9-9.4-2.4-18.7-4.3-28
	l-16.2-2.2l-0.7,23.2c-0.1,2.2-1.6,4.2-3.7,4.8l-28.6,8.6l-0.8,0.3l1.6,5.4c0,0.1,0,0.1,0,0.2c-0.9,0.2-1.9,0.3-2.8,0.4
	c-0.9,0-1.8-0.2-2.7-0.6c-1.2-0.5-2.4-1.1-3.5-1.9c-0.1,0-0.2-0.1-0.3-0.2c-2.9-2-5.4-4.2-5.9-4.1s-2.9,0.6-5.5,1.1l-4.4,0.8
	c-0.6,0.1-1.3,0-1.8-0.3C205.6,232,205.2,232.6,205.2,233.3z"/>
<path class="st10" d="M205.5,230.9c0.2,0.3,0.4,0.5,0.7,0.6c0.5,0.3,1.2,0.4,1.8,0.3l4.4-0.8c2.6-0.5,5.1-1,5.5-1.1s3,2.1,5.9,4.1
	l0.3,0.2c1.1,0.7,2.3,1.4,3.5,1.9c0.9,0.4,1.8,0.6,2.7,0.6c1.2-0.1,2.4-0.3,3.6-0.5l-1.6-5.7l0,0l-0.1-0.2c0,0-8-4.2-11.5-5.4
	l-0.6-0.2c-3-0.8-14.6,4.8-14.8,5.6C205.1,230.5,205.2,230.8,205.5,230.9z"/>
<path class="st10" d="M232.2,230.4l1.6,5.7l0,0c0.9-0.4,0.7-0.9,0.7-0.9L232.2,230.4L232.2,230.4z"/>
<path class="st2" d="M232.2,230.4l1.6,5.7v0.1c0.2,0.6,0.6,1.2,1.1,1.6l0,0c0.2,0.2,0.4,0.3,0.6,0.4c0.5,0.2,1,0.4,1.6,0.3l8.5-0.4
	l1.1-0.1l26.4-1.1c6.1-0.2,11.2-4.7,12.4-10.7c0.1-0.8,0.2-1.5,0.3-2.2c-0.9-9.5-2.4-18.9-4.3-28.2l-16.2-2.2l-0.2,7.2l-0.5,16
	c-0.1,2.2-1.6,4.2-3.7,4.8L232.2,230.4z"/>
<path class="st26" d="M219.3,199.4c-0.6,1.4-0.6,2.9,0.1,4.3l7.4,14.9v0.4l0.1-0.3l0.1,0.1c0,0,0-0.1,0-0.3l9.9-31.1
	c0.1-0.5,0.6-0.7,1.1-0.6c0.2,0.1,0.4,0.2,0.5,0.4l0.5,0.8c0.4,0.6,1.2,0.8,1.8,0.4c0.2-0.1,0.3-0.2,0.4-0.4
	c2.3-3.5,8.9-8.6,13.3-11.7c-1.9-3.7-5.1-6.4-9.1-7.6c-1.1-0.3-2.3-0.5-3.4-0.5c-6.5,0.1-12.9,2-18.4,5.7c0,0-0.1,0.1-0.1,0.1
	c-1.2,0.8-2.3,1.8-3.1,3c-2,3.1-1,7.2-1.8,10.8l2.4,3.7c0.7,1.1,0.8,2.6,0.3,3.8L219.3,199.4z"/>
<path class="st10" d="M220.7,180.1l6.5,0.9c0,0,1.3,0,3.3-0.1c3.2-0.1,8.3-0.4,12.8-1.1c7.8-1.1,14-3.4,6.9-7.6
	c-0.4-0.2-0.7-0.4-1-0.6c-3.3-2-6-4.9-7.7-8.3c-1.7-3.4-2-7.3-0.9-10.9c0,0-13.6-2.8-13.1,7.4c0,0.8,0,1.5,0,2.2
	c-0.1,3.1-0.9,6.2-2.4,9c-0.7,1.3-1.6,2.6-2.8,3.6L220.7,180.1z"/>
<path class="st13" d="M214.6,130.6c0.4,6.5,1.8,7.6,6.5,6.9c1.6-0.2,3.7-0.7,6.3-1.2c9.1-1.8,13.2,10.8,14,11.9l0.2-0.2
	c0.2-0.5,0.4-1,0.8-1.4l0,0c0.3-0.3,0.6-0.6,0.9-0.9l-1,4.1l-1.1,4.6c0,0,0.5,1.8,3.3,1.5s7.7-4.8,10.2-9.1s1.4-7.7,0-14.8
	s-6.2-7.4-12.2-7.7c-5-0.2-5.4-1.8-8.4-4.2c-0.7-0.5-1.4-1-2.1-1.5C226.8,115.5,214,121.8,214.6,130.6z"/>
<path class="st13" d="M241.4,148.2c0.1,0.1,0.1,0.1,0.2,0s0-0.1,0.1-0.2L241.4,148.2z"/>
<path class="st6" d="M234.1,120.1c1,2.1,1.8,4.3,2.4,6.6c1.1,3.3,2.5,6.7,5.3,8.7c2.1,1.5,5.1,2.1,6.4,4.4c1.2,2.1,0.5,4.8-0.7,6.9
	c-0.6,1.1-3,2.1-5.3,3.1l-1.1,4.6c0,0,0.5,1.8,3.3,1.5s7.7-4.8,10.2-9.1c2.5-4.3,1.4-7.7,0-14.8c-1.4-7.1-6.2-7.4-12.2-7.7
	C237.5,124.1,237,122.5,234.1,120.1z"/>
<path class="st10" d="M216,152.8c0.3,0.2,0.7,0.4,1.1,0.6c0.9,0.5,1.6,1.1,2.2,1.9c1.7,2.2,3.8,4.1,6.1,5.6c0.4,0.2,0.8,0.4,1.2,0.6
	c2.5,1.1,4.4,1.3,6.7,0.3c2.6-1.2,4-3.3,6-5.4l0.4-0.5c1.1-1.3,2-2.8,3.5-3.6l0.2-0.1c0.4-0.2,0.8-0.3,1.1-0.6
	c1-0.7,1.7-1.7,1.9-2.8l0,0c0-0.4,0-0.9-0.1-1.3c-0.3-0.9-0.9-1.7-1.8-2c-0.2,0-0.5,0-0.7,0h-0.1l-0.4,0.1l0,0c-0.1,0,0,0.1-0.3-0.1
	s-0.4-0.6-0.6-1c-3-4.8-10.2-10.1-14.6-11.3c-8.6-2.3-6.4,4-7.3,8.7l-0.1,0.2c-1.1,4.8-1.9,6.1-4.9,9.2
	C215.3,152,215.5,152.4,216,152.8z"/>
<path class="st13" d="M214.6,130.6c0.6,8.8,2.8,7.7,12.8,5.7s13.9,13.3,14.2,11.9c0.3-1,0.9-1.9,1.7-2.6l3.4-5.7l-15.6-9.4H214.6z"
	/>
<path class="st25" d="M228.6,222.4l0.1-0.3v-0.2l10.5-32.7c0.2-0.5,0.7-0.8,1.2-0.6c0.2,0.1,0.4,0.2,0.5,0.4l0.5,0.8
	c0.4,0.6,1.2,0.8,1.9,0.4c0.2-0.1,0.3-0.2,0.4-0.4c2.4-3.7,9.4-9,14-12.3c0.8-0.5,1.4-1,2-1.4c0.6-0.4,1-1.2,0.8-2l-2.8-1.2
	c-3.2-1.3-6.5-2.3-9.9-3c-4.1,5.7-11.9,12.4-15.7,15.6c-1.4,1.2-2.3,2.9-2.4,4.8l-1.1,29.8l0,0l-0.1,2L228.6,222.4z"/>
<path class="st2" d="M226.7,219l0.1-0.3l0.1-0.2l9.9-31.1c0.1-0.5,0.6-0.7,1.1-0.6c0.2,0.1,0.4,0.2,0.5,0.4l0.5,0.8
	c0.4,0.6,1.2,0.8,1.8,0.4c0.2-0.1,0.3-0.2,0.4-0.4c2.3-3.5,8.9-8.6,13.3-11.7c0.7-0.5,1.4-1,1.9-1.4c0.9-0.6,1.1-1.8,0.5-2.7
	c-0.1-0.2-0.3-0.4-0.5-0.5c-1.8-1.1-4.3-2.7-6.2-3.9c-1.8-1.1-3.2-1.8-3.3-1.6c-0.4,0.8-0.8,1.5-1.3,2.2l-0.2,0.3
	c-2.8,4-7.5,8.5-11.3,11.9c-1.5,1.3-2.8,2.4-3.8,3.3c-1.4,1.1-2.2,2.8-2.3,4.5l-1.1,28.3l0,0l-0.1,1.9L226.7,219z"/>
<path class="st25" d="M210,183.4c0.2,0.9,0.6,1.8,1.2,2.5l3.4,4.5l3.1,4.1c0.9,1.2,1.2,2.9,0.7,4.4l-1.8,4.9
	c-0.6,1.6-0.4,3.4,0.5,4.9l9.9,16.6l0.1,0.2l0.1,0.1c0,0,0-0.1,0-0.3c0-0.4-0.1-1.1-0.2-2.2l0,0c-0.6-6.3-2.3-23.1-2.4-31.3
	c-0.1-6.4-2.5-12.8-4.3-16.7c-0.1-0.2-0.2-0.3-0.3-0.5c-2,1.3-3.7,2.9-5.2,4.8L210,183.4z"/>
<path class="st2" d="M215.8,183.7l2.6,4.1l2.4,3.7c0.7,1.1,0.8,2.6,0.3,3.8l-1.8,4.1c-0.6,1.4-0.6,2.9,0.1,4.3l7.4,14.9l0.1,0.1
	l0.1,0.1c0,0,0-0.1,0-0.3c0-0.4,0-1-0.1-1.9l0,0c-0.1-5.5-0.4-20,0.1-27.1c0.4-5.5-1.3-11.2-2.6-14.6c-0.2-0.4-0.4-0.8-0.8-1.1
	c-1-0.8-2.4-0.9-3.4-0.1l-2.8,2.1C214.8,177.7,214.2,181.1,215.8,183.7z"/>
<path class="st21" d="M220.7,142c0.6,0.1,1.3,0.2,1.9,0.2c2.7-0.1,5.3-1.6,7.9-1.3s4.6,2.5,5.9,4.7c0.4,0.8,0.9,1.5,1.5,2.2
	c0.6,0.7,1.5,1,2.4,0.9c0.4-0.1,0.7-0.2,1-0.5c-0.9-1.2-5-13.8-14-11.9c-2.6,0.5-4.6,1-6.3,1.2C221.1,139,221,140.5,220.7,142z"/>
<path class="st21" d="M225.2,170.9c0.3,0.1,0.5,0.2,0.8,0.2c1.3,0.1,2.3-1,3.2-1.9c1-1.1,2.2-2.1,3.5-2.9c1.1-0.5,2.2-1.2,3.2-1.9
	c1.5-1.4,2.6-3.2,3-5.2c0.3-1.1,0.6-2.3,1-3.4l-0.4,0.5c-2,2.1-3.4,4.2-6,5.4c-1.8,0.9-4,0.9-5.9,0.1
	C227.5,165,226.7,168.1,225.2,170.9z"/>
<path class="st21" d="M230.5,180.9c1,0,2.1-0.1,3.4-0.2c3.8-3.4,8.6-7.9,11.3-11.9l0.2-0.3c-1.6-1.5-3-3.3-3.9-5.3
	c-0.3,0.2-0.5,0.5-0.6,0.9c-0.2,0.9,0.5,1.3,0.9,2c1.5,2.4,0.1,4.8-2,6.2c-1.4,1-3,1.6-4.2,2.9c-0.9,1-1.5,2.2-2.4,3.2
	S231.3,180,230.5,180.9z"/>
<path class="st25" d="M232.3,230.4l28.6-8.6c2.1-0.6,3.6-2.6,3.7-4.8l0.5-16c-0.3,0.1-0.5,0.3-0.7,0.5c-1.2,1.2-2.1,2.7-2.8,4.2
	c-0.7,1.4-1.1,2.9-1.7,4.4c-1,2.2-2.4,4.3-3.9,6.2c-2.1,2.8-4.4,5.5-7.4,7.2c-1.8,0.9-3.7,1.6-5.7,2.1c-3.9,1.1-8,2.2-12.1,1.7
	c-3.4-0.5-6.6-2.1-10-2.5c3.5,1.2,11.5,5.4,11.5,5.4L232.3,230.4z"/>
<path class="st12" d="M228.2,235.2l-29.3-5.7c-1.1-0.2-2.1,0.6-2.3,1.6c0,0.1,0,0.2,0,0.3v7.4h34.6
	C231.2,237.1,229.9,235.6,228.2,235.2z"/>
<path class="st13" d="M196.6,233.7v5.9h34.6v-0.4c0-0.6-0.4-1.1-1.1-1.3l-32.1-5.5c-0.7-0.1-1.3,0.4-1.5,1
	C196.6,233.6,196.6,233.6,196.6,233.7z"/>
<path class="st27" d="M358.2,334.7H418c4.1,0,7.4,3.3,7.4,7.4v0c0,4.1-3.3,7.4-7.4,7.4h-59.7c-4.1,0-7.4-3.3-7.4-7.4v0
	C350.8,338,354.1,334.7,358.2,334.7z"/>
<g class="st28">
	
		<rect x="359.7" y="246.3" transform="matrix(1 -1.570794e-03 1.570794e-03 1 -0.3891 0.611)" class="st5" width="58.1" height="3.6"/>
	
		<rect x="359.7" y="249.8" transform="matrix(1 -1.570794e-03 1.570794e-03 1 -0.4086 0.611)" class="st2" width="58.1" height="21.2"/>
	
		<rect x="364" y="253.2" transform="matrix(1 -1.570794e-03 1.570794e-03 1 -0.4085 0.611)" class="st5" width="49.6" height="14.4"/>
	
		<rect x="380.1" y="256.9" transform="matrix(1 -1.570794e-03 1.570794e-03 1 -0.406 0.611)" class="st2" width="17.4" height="3.7"/>
</g>
<g class="st28">
	
		<rect x="359.8" y="270" transform="matrix(1 -1.570794e-03 1.570794e-03 1 -0.4264 0.6111)" class="st5" width="58.1" height="3.5"/>
	
		<rect x="359.8" y="273.5" transform="matrix(1 -1.570794e-03 1.570794e-03 1 -0.4458 0.6111)" class="st2" width="58.1" height="21.2"/>
	
		<rect x="364" y="276.9" transform="matrix(1 -1.570794e-03 1.570794e-03 1 -0.4458 0.6111)" class="st5" width="49.6" height="14.4"/>
	
		<rect x="380.1" y="280.6" transform="matrix(1 -1.570794e-03 1.570794e-03 1 -0.4433 0.6111)" class="st2" width="17.4" height="3.7"/>
</g>
<g class="st28">
	
		<rect x="359.8" y="293.7" transform="matrix(1 -1.570794e-03 1.570794e-03 1 -0.4637 0.6112)" class="st5" width="58.1" height="3.5"/>
	
		<rect x="359.8" y="297.3" transform="matrix(1 -1.570794e-03 1.570794e-03 1 -0.4831 0.6112)" class="st2" width="58.1" height="21.2"/>
	
		<rect x="364.1" y="300.7" transform="matrix(1 -1.570794e-03 1.570794e-03 1 -0.4831 0.6112)" class="st5" width="49.6" height="14.4"/>
	
		<rect x="380.2" y="304.4" transform="matrix(1 -1.570794e-03 1.570794e-03 1 -0.4805 0.6112)" class="st2" width="17.4" height="3.7"/>
</g>
<rect x="359.8" y="317.4" transform="matrix(1 -1.570794e-03 1.570794e-03 1 -0.5009 0.6112)" class="st3" width="58.1" height="3.5"/>
<rect x="359.9" y="321" transform="matrix(1 -1.570794e-03 1.570794e-03 1 -0.5203 0.6113)" class="st3" width="58.1" height="21.2"/>
<rect x="364.1" y="324.4" transform="matrix(1 -1.570794e-03 1.570794e-03 1 -0.5204 0.6113)" class="st3" width="49.6" height="14.4"/>
<rect x="380.2" y="328.1" transform="matrix(1 -1.570794e-03 1.570794e-03 1 -0.5178 0.6113)" class="st3" width="17.4" height="3.7"/>
<g class="st28">
	
		<rect x="359.8" y="317.2" transform="matrix(1 -1.570794e-03 1.570794e-03 1 -0.5005 0.6112)" class="st5" width="58.1" height="3.5"/>
	
		<rect x="359.9" y="320.7" transform="matrix(1 -1.570794e-03 1.570794e-03 1 -0.5199 0.6113)" class="st2" width="58.1" height="21.2"/>
	
		<rect x="364.1" y="324.1" transform="matrix(1 -1.570794e-03 1.570794e-03 1 -0.5199 0.6113)" class="st5" width="49.6" height="14.4"/>
	
		<rect x="380.2" y="327.8" transform="matrix(1 -1.570794e-03 1.570794e-03 1 -0.5174 0.6113)" class="st2" width="17.4" height="3.7"/>
</g>
<path class="st5" d="M388.9,180.1c-0.8,0-1.6,0.2-2.3,0.6c-0.6,0.4-1,0.9-1.4,1.5c-1.7,3.1-0.5,7,1.2,10.2c1.8,3.5,4,6.7,5.8,10.2
	c1.9,3.4,3,7.3,3,11.2c1.8-2.8,3.2-5.7,4.4-8.8c1.8-5.3,1.6-11.2-0.5-16.4C397.4,184.3,393.6,180.1,388.9,180.1z"/>
<path class="st5" d="M378.1,203.7c-1.3-0.3-2.7-0.4-4-0.3c-2.2,0.2-4.1,1.6-5,3.7c-1,2.8,0.8,6,3.4,7.6c3.2,1.8,7.1,1.8,10.6,2.4
	c2.5,0.5,5.1,1.4,6.8,3.4c0.3-4.4,0-8.9-3.3-12.2c-1.8-1.7-3.8-2.9-6.1-3.8C379.7,204.1,378.9,203.9,378.1,203.7z"/>
<path class="st5" d="M410.7,203.6c-1-1.2-2.6-1.9-4.2-1.8c-2,0.2-3.4,2-4.1,3.8c-0.7,1.6-1.1,3.3-1.2,5c-0.2,3.9,1.2,8.2-0.9,11.5
	c7.4-1.2,12.5-8.2,11.3-15.6c0-0.2-0.1-0.5-0.1-0.7C411.5,205,411.2,204.3,410.7,203.6z"/>
<path class="st26" d="M391.4,188.4c2.9,6.9,3.4,14.3,3.6,21.7c0,0.5,0,1,0,1.5c0.1,4.2,0.5,8.5,0.4,12.7c0,2-0.2,4-0.4,6h1.6
	c0.3-1.1,0.8-2.1,1.3-3.1c1-1.9,2.3-3.7,3.7-5.3l1.3-1.5c3.1-3.7,5.2-8.2,6.1-13c0-0.2-0.3-0.3-0.3-0.1c-1.3,5.6-4.3,10.2-8,14.5
	l0,0c-1.6,1.9-3,3.9-4.1,6.2l-0.2,0.5c0.2-1.8,0.2-3.7,0.2-5.6c-0.1-3.4-0.3-6.8-0.5-10.3l-0.1-2.3c-0.4-7.6-1-15.2-4.1-22.2
	C391.6,187.9,391.3,188.1,391.4,188.4z"/>
<path class="st26" d="M374.5,209.3c5.5,2.7,11.3,4.8,14.6,10.3l0.1,0.1c2,3.3,3.5,6.9,4.5,10.6h1.2c-1-3.9-2.7-7.6-4.8-11l-0.4-0.6
	c-3.6-5.4-9.2-7.4-14.9-9.8C374.4,208.7,374.1,209.1,374.5,209.3z"/>
<path class="st2" d="M404.7,230.8v0.3l-0.1,0.8l-0.3,1.9l-0.2,1.3l-0.4,2.7l-0.1,0.7l-0.4,2.5l-0.2,1.3l-0.4,2.7l-0.1,0.5
	c0,0.2-0.2,0.4-0.5,0.4h-11.4c-0.2,0-0.4-0.2-0.5-0.4l-0.2-1.6l0,0v-0.4l-0.1-1.1l-0.1-0.7v-0.1l-0.6-4.8l0,0v-0.3l-0.2-1.3
	l-0.1-0.6v-0.2l-0.2-1.6l-0.1-0.6l-0.3-1.4c0-0.3,0.2-0.5,0.4-0.5c0,0,0,0,0.1,0h15.3c0.3,0,0.5,0.2,0.5,0.4
	C404.7,230.7,404.7,230.7,404.7,230.8z"/>
<polygon class="st29" points="388.7,232.7 388.7,232.7 388.6,232.1 388.6,232.1 "/>
<polygon class="st29" points="389.2,236.7 389.2,236.4 389.2,236.4 "/>
<polygon class="st29" points="389,235.1 389,235.1 388.9,234.5 "/>
<path class="st5" d="M404.7,230.8v0.3l-0.1,0.8l-0.3,1.9l-0.2,1.3l-0.4,2.7l-0.1,0.7l-0.4,2.5l-0.2,1.3l-0.4,2.7l-0.1,0.5
	c0,0.2-0.2,0.4-0.5,0.4h-11.4c-0.2,0-0.4-0.2-0.5-0.4l-0.2-1.6l0,0v-0.4l-0.1-1.1l-0.1-0.7c1.4-1.4,3.1-2.4,5-2.8
	c7.1-2,7-6.1,6.4-8.5h3C404.5,230.2,404.7,230.5,404.7,230.8C404.7,230.7,404.7,230.7,404.7,230.8z"/>
</svg>
